<?xml version="1.0" encoding="UTF-8" standalone="no"?>
<!-- Created with Inkscape (http://www.inkscape.org/) -->

<svg
   width="183.8822mm"
   height="232.77716mm"
   viewBox="0 0 183.8822 232.77716"
   version="1.1"
   id="svg5"
   xml:space="preserve"
   xmlns="http://www.w3.org/2000/svg"
   xmlns:svg="http://www.w3.org/2000/svg"><defs
     id="defs2" /><g
     id="layer1"
     transform="translate(1460.4934,803.9481)"><path
       style="fill:#000000;stroke-width:0.743976"
       d="m -1301.6854,-572.56925 -3.0067,-1.36575 -1.9512,-2.3189 -1.9512,-2.31889 -0.9939,-2.80881 -0.9939,-2.80881 0.011,-17.48343 0.011,-17.48344 0.9183,-3.04951 0.9183,-3.04953 1.6755,-2.44971 1.6755,-2.44969 3.1412,-1.56854 3.1412,-1.56855 0.021,-72.72364 0.021,-72.72364 h -0.3061 -0.3061 l -5.3396,6.69578 -5.3397,6.69579 h -0.306 -0.3061 v -7.3811 -7.3811 l 7.8679,-11.03231 7.8679,-11.03229 0.8738,-0.88638 0.8738,-0.88639 8.3697,11.79002 8.3697,11.79 v 7.58318 7.58319 l -5.3938,-6.72634 -5.3938,-6.72634 -0.558,-0.0429 -0.558,-0.0429 v 72.52253 72.52252 l 2.7899,1.43067 2.79,1.43068 1.5869,1.74635 1.5869,1.74634 1.389,2.60392 1.389,2.60391 0.2449,18.123 0.2449,18.12302 -1.2447,3.82427 -1.2447,3.82429 -2.5935,2.38661 -2.5934,2.38663 -1.4286,0.45342 -1.4286,0.45343 v 0.69384 0.69383 l -5.7658,-0.0164 -5.7658,-0.0164 -3.0067,-1.36574 z m 11.1483,-12.15869 1.1581,-1.65348 v -14.97494 -14.97495 l -0.8183,-2.34744 -0.8183,-2.34743 -1.9111,-0.47965 -1.9112,-0.47967 -1.3624,1.68253 -1.3624,1.68253 v 16.88023 16.88023 l 0.8928,0.89277 0.8927,0.89277 h 2.041 2.0409 z m -77.883,-29.77948 -0.1923,-41.10467 -5.3838,29.75904 -5.3838,29.75903 -0.3528,2.23192 -0.3528,2.23193 -1.144,6.69579 -1.1438,6.69578 -0.4324,2.04593 -0.4324,2.04594 h -11.4583 -11.4583 l -0.3806,-1.67395 -0.3805,-1.67395 -2.6737,-19.34337 -2.6736,-19.34337 -0.2904,-0.29247 -0.2903,-0.29248 -0.353,1.03645 -0.353,1.03646 -0.7179,5.9518 -0.7179,5.95181 -1.9239,12.64759 -1.9239,12.64758 -0.3848,1.67395 -0.3848,1.67395 h -11.4158 -11.4158 l -0.8562,-4.27786 -0.8563,-4.27787 -3.6897,-20.83131 -3.6897,-20.83132 -2.6204,-14.50754 -2.6204,-14.50753 v -1.30195 l -0.01,-1.30197 h 10.01 10.01 l 0.4149,2.41793 0.4149,2.41792 1.8734,15.99547 1.8733,15.99548 0.2418,2.23194 0.2418,2.23193 0.5865,6.1378 0.5865,6.1378 h 0.4669 0.4669 l 1.6515,-10.97364 1.6516,-10.97364 2.3648,-15.8095 2.365,-15.80949 h 9.1732 9.1733 l 0.061,1.30197 0.061,1.30195 0.358,2.23193 0.3581,2.23193 3.3006,22.99778 3.3007,22.99776 v 0.74745 0.74746 l 0.3756,-0.37561 0.3757,-0.37561 1.8381,-15.92986 1.8381,-15.92985 1.1327,-10.78766 1.1326,-10.78765 v -0.18599 -0.186 h 10.4157 10.4157 v -43.52257 -43.52259 l -1.488,-1.48796 -1.4879,-1.48795 h -2.0917 -2.0916 l -1.6283,1.51694 -1.6282,1.51692 -0.06,2.01697 -0.06,2.01694 0.1159,30.34037 0.116,30.34036 -9.1694,-0.20934 -9.1693,-0.20934 0.2432,-49.28841 0.2432,-49.2884 h -10.8909 -10.8908 l 0.097,6.1378 0.097,6.13781 -0.051,43.52258 -0.051,43.52259 h -9.6717 -9.6717 v -49.66039 -49.66039 h -7.8117 -7.8118 v -8.55571 -8.55573 h 37.2327 37.2326 l -0.5215,20.08735 -0.5215,20.08735 h 0.73 0.7299 l 1.8036,-1.95809 1.8037,-1.95808 2.9759,-1.37347 2.9759,-1.37347 3.6192,-0.0164 3.6192,-0.0164 3.6971,2.01224 3.6972,2.01223 1.6113,3.0096 1.6114,3.00961 0.206,50.43761 0.2061,50.43761 1.8572,-2.20722 1.8573,-2.20721 3.3676,-1.63022 3.3676,-1.63023 4.7094,0.29988 4.7095,0.29988 2.7085,2.06589 2.7086,2.06591 1.2866,1.96267 1.2867,1.96268 0.6164,36.72978 0.6163,36.72978 -0.407,1.06071 -0.407,1.06071 h -8.9199 -8.9199 l 0.1548,-33.35821 0.1549,-33.35813 -1.0211,-1.23667 -1.0211,-1.23668 h -3.2376 -3.2377 l -1.1351,2.19498 -1.1351,2.19498 v 32.39989 32.3999 h -8.9214 -8.9214 z m 13.7844,-63.59951 -3.8787,-0.27229 -4.305,0.26924 -4.3051,0.26926 8.1838,0.004 8.1837,0.002 -3.8787,-0.27231 z m 23.1925,2.73166 -2.2615,-0.65763 -2.9501,-2.52519 -2.9501,-2.52519 -1.3483,-3.74936 -1.3482,-3.74936 0.236,-17.36595 0.2361,-17.36593 2.2319,-4.4526 2.232,-4.45261 3.7,-1.87119 3.7,-1.8712 h 5.6196 5.6195 l 3.6784,1.89296 3.6783,1.89295 2.0676,3.95782 2.0676,3.95781 v 10.7027 10.70269 h -11.1596 -11.1597 v 5.60372 5.60371 l 1.078,2.58002 1.078,2.58001 h 2.2168 2.2167 l 1.1691,-1.16909 1.1691,-1.16911 v -3.66674 -3.66673 h 6.5386 6.5386 l -0.4676,5.02183 -0.4676,5.02183 -1.5348,2.97591 -1.5347,2.97591 -1.7565,1.63842 -1.7565,1.63845 -2.7558,1.15146 -2.7559,1.15148 -4.3017,-0.0671 -4.3018,-0.0671 -2.2615,-0.65762 z m 11.5612,-42.40886 v -4.48143 l -1.8261,-1.82611 -1.8261,-1.82613 h -1.0674 -1.0674 l -1.6036,1.30195 -1.6037,1.30197 -0.4091,4.87943 -0.4091,4.87945 4.9063,0.12614 4.9062,0.12616 z m -140.6114,24.22928 v -0.37199 h 0.372 0.3719 v 0.37199 0.37199 h -0.3719 -0.372 z m 1.4879,-11.15964 v -0.37199 h 0.372 0.372 v 0.37199 0.37199 h -0.372 -0.372 z m 173.3464,-29.01506 v -0.37199 h 0.372 0.372 v 0.37199 0.37199 h -0.372 -0.372 z"
       id="path9831" /></g></svg>
