<?xml version="1.0" encoding="UTF-8" standalone="no"?>
<!-- Created with Inkscape (http://www.inkscape.org/) -->

<svg
   width="451.45441mm"
   height="258.58038mm"
   viewBox="0 0 451.45441 258.58038"
   version="1.1"
   id="svg5"
   xml:space="preserve"
   xmlns="http://www.w3.org/2000/svg"
   xmlns:svg="http://www.w3.org/2000/svg"><defs
     id="defs2" /><g
     id="layer1"
     transform="translate(854.47225,609.17747)"><path
       style="fill:#000000;stroke-width:0.352778"
       d="m -656.19899,-352.21544 c -1.81011,-3.08872 -13.472,-29.20307 -15.64128,-35.02535 -0.54218,-1.45521 -1.49342,-3.75708 -2.11386,-5.11528 -4.46135,-9.7663 -11.68953,-30.97454 -14.81673,-43.47386 l -0.37361,-1.49331 -0.66802,-0.35751 c -1.01801,-0.54482 -1.5129,-0.18206 -3.15134,2.31001 -3.78343,5.75459 -5.11456,11.69168 -6.20275,27.66535 -0.68315,10.02785 -1.76364,11.63677 -6.25506,9.31416 l -1.09665,-0.56709 0.23037,-12.57388 c 0.59065,-32.23751 3.67441,-61.26288 6.9514,-65.4289 l 0.72158,-0.91735 1.13125,-0.20884 1.13124,-0.20885 2.46944,0.75811 2.46945,0.7581 1.97938,2.02001 1.97939,2.02001 0.78574,2.09192 c 1.03395,2.75274 1.68168,6.22145 1.9855,10.63262 l 0.24741,3.59223 1.62656,-0.82433 c 2.48312,-1.25843 9.4211,-5.92448 19.03546,-12.80206 15.18143,-10.85995 22.62556,-15.39872 25.99759,-15.851 l 1.4002,-0.18781 0.62392,0.68942 0.62392,0.68942 -0.21034,0.54814 c -0.27566,0.71834 -3.14992,2.93518 -8.80251,6.78913 -20.62083,14.05933 -27.02842,19.30259 -32.91097,26.93066 l -2.5432,3.29784 10e-4,3.40494 c 0.006,15.76517 4.87669,35.18302 15.45612,61.61328 3.67028,9.16933 5.49973,13.55772 10.66236,25.57639 0.54174,1.26118 1.0923,3.02435 1.22345,3.91816 l 0.23847,1.6251 -1.1349,0.22698 c -1.8683,0.37366 -2.03548,0.29493 -3.05019,-1.43656 z m 114.91987,-30.3964 c -0.63812,-0.99442 -1.4818,-2.79994 -1.87485,-4.01225 l -0.71462,-2.2042 0.005,-4.05695 0.005,-4.05694 0.58015,-3.52778 c 0.31908,-1.94028 1.07688,-6.06778 1.68399,-9.17222 l 1.10385,-5.64444 0.0176,-3.35139 0.0176,-3.35139 -1.13622,-5.24741 c -0.62492,-2.88607 -1.64007,-8.60107 -2.25588,-12.7 l -1.11961,-7.45259 -0.0219,-10.05417 -0.0219,-10.05417 0.65819,-3.52778 c 0.36201,-1.94027 0.86984,-4.04371 1.12853,-4.6743 l 0.47034,-1.14653 h 1.18869 c 0.65378,0 1.98807,0.23739 2.96509,0.52753 l 1.77639,0.52753 1.58163,1.39221 1.58163,1.39221 0.99987,2.2254 0.99986,2.2254 0.99219,5.97647 0.9922,5.97648 -2.28632,6.98739 c -1.25748,3.84306 -2.51124,8.28345 -2.78613,9.86753 l -0.49981,2.88014 0.32447,0.85342 c 0.68085,1.79078 3.98798,-3.34678 7.55491,-11.73641 2.21415,-5.2078 3.59039,-7.38242 9.38691,-14.8324 4.5748,-5.87977 6.94988,-9.43667 7.86346,-11.77628 l 0.61319,-1.57033 4.64874,-4.41107 c 2.55681,-2.42608 10.12563,-9.82002 16.81958,-16.43097 15.32509,-15.13505 21.88768,-21.21728 33.24211,-30.80887 3.05199,-2.57814 6.86894,-5.98911 8.48209,-7.57993 l 2.93303,-2.8924 10.7443,-7.80353 c 12.84697,-9.33067 15.84502,-11.31217 20.33147,-13.43737 l 3.41185,-1.6162 2.40348,-0.172 2.40344,-0.172 0.53386,0.4431 0.53382,0.443 v 1.9082 1.9081 l -0.44097,0.1289 c -11.43561,3.3418 -19.90044,8.3664 -34.90673,20.7202 -1.49366,1.22964 -6.73008,5.49009 -11.63651,9.46766 -19.32803,15.66896 -23.88645,19.6685 -29.54758,25.92495 -2.10887,2.33065 -6.4081,6.9363 -9.55382,10.23477 -16.91493,17.73627 -34.08666,42.62588 -38.67126,56.05216 l -0.85672,2.50896 -0.33243,4.23333 c -0.18283,2.32833 -0.33602,6.06405 -0.34042,8.30159 l -0.008,4.06826 -0.53329,1.92896 c -2.33502,8.446 -2.52639,9.74275 -3.01277,20.41488 -0.19984,4.38483 -0.52882,8.49112 -0.73108,9.12509 l -0.36774,1.15266 -1.0201,0.52751 c -0.56106,0.29014 -1.94747,0.62445 -3.08093,0.74292 l -2.06083,0.2154 z m 24.68601,-5.65168 c -1.06641,-1.9926 -0.0145,-4.42384 3.75489,-8.67866 l 2.81278,-3.175 -0.2668,-5.99722 c -0.14674,-3.29847 -0.38324,-11.00564 -0.52555,-17.12704 l -0.25874,-11.12982 1.48072,-2.45212 c 1.64555,-2.72508 2.56709,-5.47175 3.42669,-10.21325 l 0.5756,-3.175 0.17815,-8.53589 0.17815,-8.53589 3.66489,-1.60502 c 2.0157,-0.88276 4.97289,-1.94794 6.57154,-2.36707 l 2.90668,-0.76205 5.12184,-0.0332 5.1218,-0.0332 2.33673,1.14995 2.33677,1.14994 1.31212,1.45237 c 0.72168,0.79879 1.77944,2.45104 2.35066,3.67165 l 1.03851,2.21929 0.40901,3.24041 0.40901,3.24041 -0.74376,2.8772 c -3.62529,14.02377 -14.23889,32.09616 -28.87144,49.16114 -2.03241,2.37026 -5.37463,6.84804 -7.42716,9.95062 -2.05253,3.10257 -3.99775,5.71346 -4.3227,5.80198 -0.32496,0.0885 -1.17757,0.25976 -1.8947,0.38054 l -1.30386,0.21961 -0.37183,-0.69478 z m 16.07844,-24.28908 c 2.99124,-3.09077 7.33316,-8.67866 10.94726,-14.08871 l 3.58507,-5.36653 2.78334,-5.57412 c 1.53081,-3.06576 3.28641,-7.09671 3.9013,-8.95767 l 1.11799,-3.38356 0.36005,-3.14283 c 0.19801,-1.72856 0.36135,-4.21924 0.36293,-5.53486 l 0.004,-2.39202 -1.28556,-1.13575 c -2.19755,-1.94144 -4.09624,-3.06076 -6.4245,-3.78741 l -2.24268,-0.69973 h -2.54582 -2.54582 l -1.58193,0.53901 c -2.03856,0.69461 -4.14087,2.4365 -4.7764,3.95757 l -0.50056,1.19796 -1.20149,13.99787 c -0.66082,7.69882 -1.62646,18.71287 -2.14586,24.47566 -1.1566,12.8325 -1.06302,13.2555 2.18915,9.89512 z m -112.32123,23.46159 c -0.41217,-0.43873 -1.19513,-1.74973 -1.73992,-2.91332 l -0.99052,-2.11563 0.0239,-7.40833 c 0.0132,-4.07458 0.21782,-9.71021 0.45483,-12.52361 0.23702,-2.81341 1.13907,-13.18206 2.00457,-23.04145 0.86549,-9.85939 1.57363,-18.62068 1.57363,-19.46952 v -1.54334 l -1.46743,-1.69549 c -0.80709,-0.93251 -1.83741,-2.48998 -2.28961,-3.46104 l -0.82218,-1.76555 -0.004,-1.68703 c -0.006,-3.10437 1.23199,-4.87326 4.41067,-6.30044 l 1.7595,-0.78998 3.175,-0.0118 3.175,-0.0118 1.2901,0.4483 1.2901,0.44831 1.59187,1.70184 1.59187,1.70183 0.24837,1.6562 c 0.1366,0.91091 0.13531,2.95545 -0.003,4.54344 l -0.25117,2.88727 -2.08697,8.29028 c -4.17353,16.57897 -6.59798,31.79196 -7.26657,45.59653 l -0.21785,4.49791 h 0.50759 c 0.27917,0 1.93088,-1.10457 3.67046,-2.45461 9.41708,-7.30829 11.16226,-8.58574 13.74643,-10.06222 1.55211,-0.8868 4.06052,-2.00517 5.57425,-2.48527 l 2.75224,-0.8729 h 2.06071 2.06071 l 0.21414,0.55802 c 0.11777,0.30691 0.21413,1.08257 0.21413,1.72369 v 1.16567 l -4.19912,2.87916 c -5.26025,3.60674 -8.2626,6.15448 -15.38005,13.05122 -3.10444,3.00819 -6.67632,6.44826 -7.9375,7.64463 l -2.29306,2.1752 -2.8462,0.22077 -2.84619,0.22078 z m -185.47255,-10.5022 c -0.54464,-0.88126 -0.84973,-13.04804 -1.07907,-43.03369 l -0.24689,-32.27917 -0.79499,-1.5875 c -0.43724,-0.87313 -0.99536,-2.25758 -1.24026,-3.07657 l -0.44528,-1.48906 0.95809,-2.13492 0.95809,-2.13491 0.32253,-4.48991 c 0.17739,-2.46945 0.57092,-9.64929 0.8745,-15.95519 0.85827,-17.8279 2.31096,-37.89177 2.77723,-38.35805 0.0976,-0.0976 0.88303,-0.257 1.74539,-0.3542 l 1.56791,-0.17672 0.2101,0.66195 c 0.11555,0.36407 0.47239,2.32753 0.79297,4.36324 l 0.58287,3.70128 0.15527,18.78542 c 0.0854,10.33198 0.26779,18.78541 0.40531,18.78541 0.7435,0 3.32163,-3.17262 10.46356,-12.87638 2.28486,-3.10445 4.8254,-6.4382 5.64565,-7.40834 8.97614,-10.61642 21.50089,-31.11478 25.25674,-41.33588 l 1.1443,-3.1141 0.007,-3.5278 0.007,-3.5278 -0.76752,-2.4694 c -0.42214,-1.3582 -1.1662,-3.0515 -1.65346,-3.7628 l -0.88593,-1.2934 -1.99765,-0.9774 -1.99765,-0.9773 -2.92448,-0.1535 -2.92447,-0.1535 -3.6401,0.6069 c -17.54954,2.926 -37.92815,13.6914 -53.73455,28.3861 -3.29883,3.0669 -4.91217,4.2306 -12.74461,9.19294 l -3.06249,1.94027 -4.15894,3.96342 c -6.27971,5.98449 -8.56946,7.24827 -13.76196,7.59561 l -1.978,0.13232 0.16164,-1.61234 c 0.30336,-3.02607 1.12126,-4.25484 7.78739,-11.69934 1.80811,-2.01923 3.99045,-4.73706 4.84964,-6.03958 0.85919,-1.3026 1.8748,-2.5356 2.2569,-2.7401 0.38211,-0.2045 5.42289,-4.0487 11.20175,-8.5428 14.86242,-11.558 18.10098,-13.7126 28.1459,-18.7256 11.40124,-5.6899 20.48999,-8.7016 29.60322,-9.8095 l 3.49766,-0.4252 4.26345,0.2087 4.26345,0.2086 3.50411,0.8966 3.50412,0.8966 1.91677,1.1505 c 2.51761,1.5111 4.73731,4.0646 6.34909,7.3039 l 1.30646,2.6257 0.11418,7.1619 0.11417,7.1619 -2.46306,6.2638 c -1.35469,3.4451 -3.02529,7.88347 -3.71245,9.86306 -0.68716,1.9796 -1.51936,4.12272 -1.84933,4.7625 -1.35601,2.62913 -13.64703,20.31216 -20.46921,29.44894 -2.19919,2.94533 -4.88451,6.81626 -5.96737,8.60206 -2.83113,4.66895 -5.11079,7.91632 -7.53612,10.73517 l -2.12292,2.46737 -1.79535,4.10046 -1.79535,4.10045 -1.70134,0.92598 c -0.93573,0.50929 -1.92022,1.18954 -2.18775,1.51167 l -0.48643,0.58568 -0.22763,13.96912 c -0.1252,7.68302 -0.24426,24.45326 -0.26458,37.2672 l -0.037,23.29808 -1.51266,1.48456 c -1.53196,1.50351 -2.14656,1.77531 -2.5475,1.12659 z m 77.10208,-4.66911 c -2.14351,-4.52013 -8.25858,-18.52106 -10.2078,-23.37153 -1.71166,-4.25932 -10.72858,-21.81899 -11.29265,-21.99145 l -0.49326,-0.15082 0.31687,4.72114 c 0.17428,2.59662 0.30836,9.00738 0.29797,14.24613 l -0.0189,9.525 -0.62803,2.29306 c -1.21792,4.44692 -3.40392,7.33966 -6.1155,8.09267 -2.91657,0.80994 -3.78294,0.29268 -5.01207,-2.99248 l -0.7619,-2.03636 -0.37776,-3.91317 -0.37774,-3.91316 0.206,-15.34584 c 0.31757,-23.65766 1.39443,-32.70564 4.55554,-38.27639 l 0.80073,-1.41111 1.93399,-0.66804 1.93399,-0.66804 2.70554,-0.0375 2.70554,-0.0375 0.99863,0.72832 c 0.54924,0.40058 1.2597,1.27371 1.57879,1.94028 l 0.58016,1.21196 0.39932,7.31791 c 1.12975,20.70394 5.27662,34.76597 12.13034,41.134 l 0.88998,0.82691 0.40522,-0.75716 c 0.22287,-0.41644 0.63476,-1.82043 0.91531,-3.11997 l 0.51009,-2.3628 0.3429,-8.58688 c 1.58817,-39.76966 19.36503,-100.69305 43.19855,-148.04646 8.22728,-16.3463 11.20767,-20.5978 13.2692,-18.9285 l 0.80357,0.6507 -1.13762,2.4361 c -0.6257,1.3399 -3.18266,6.2461 -5.68214,10.9028 -11.18187,20.8323 -16.29585,32.9094 -25.46971,60.14862 -11.02378,32.73204 -15.39642,51.68138 -19.69998,85.37223 l -0.74353,5.82083 -0.19415,7.05556 -0.19415,7.05555 0.39783,6.0762 c 0.41228,6.29695 1.16624,10.95538 2.69354,16.64241 l 0.89049,3.31582 -0.65646,1.27029 c -0.73224,1.41692 -1.85995,2.13923 -3.35205,2.14703 l -0.99535,0.005 z m 85.42586,3.8982 -0.42333,-0.42334 v -1.6563 c 0,-0.91096 0.47356,-8.14202 1.05236,-16.06902 1.14086,-15.62481 2.31309,-34.66244 2.69581,-43.78149 l 0.24059,-5.73264 h -0.9818 c -0.54,0 -2.21656,0.33839 -3.7257,0.75198 l -2.74389,0.75197 -0.87237,-0.21894 -0.87236,-0.21895 -0.18775,-0.71796 c -0.10326,-0.39487 -0.0255,-1.30553 0.17279,-2.02369 l 0.36053,-1.30574 2.23665,-2.19305 c 1.23016,-1.20618 3.49783,-3.07678 5.03927,-4.15689 l 2.80262,-1.96385 0.19198,-0.79063 c 1.77133,-7.29462 5.44768,-28.50082 6.43639,-37.12675 l 0.56609,-4.93889 0.0327,-5.99722 0.0327,-5.99722 -0.44297,-2.25969 c -0.24363,-1.24283 -0.76973,-3.13305 -1.16911,-4.20048 l -0.72614,-1.94078 -1.55538,-1.55538 -1.55538,-1.55538 -7.13823,3.68686 c -8.96569,4.63073 -15.53797,8.38215 -20.56212,11.73675 l -3.91573,2.61449 -1.72873,-0.005 c -0.9508,-0.003 -1.95052,-0.14583 -2.22159,-0.31747 l -0.49286,-0.31207 0.21373,-1.31708 c 0.69464,-4.28056 6.95287,-10.55041 16.18554,-16.21559 l 2.71354,-1.66504 5.04757,-1.3878 c 8.35048,-2.2958 18.08922,-6.5187 20.33805,-8.8188 l 1.03103,-1.0546 0.73242,-2.3565 c 0.40283,-1.2961 1.23374,-4.8172 1.84647,-7.8247 1.24732,-6.1221 1.28471,-6.2009 3.18353,-6.7122 l 1.36424,-0.3674 1.09097,0.5642 1.09096,0.5641 0.84935,1.8292 c 0.46714,1.006 1.19914,3.3924 1.62666,5.3032 l 0.77731,3.4741 1.38972,-0.2222 c 0.76434,-0.1222 4.02869,-1.2337 7.25411,-2.4701 3.22543,-1.2363 9.03941,-3.4643 12.91996,-4.9511 21.00324,-8.0474 44.84348,-14.8906 65.72119,-18.8649 4.13207,-0.7866 7.58488,-1.4302 7.67292,-1.4302 0.45959,0 0.0669,1.857 -0.51589,2.4399 -1.05027,1.0502 -3.24062,1.9078 -15.41837,6.0366 -6.23251,2.1132 -12.54226,4.3229 -14.02166,4.9106 l -2.68983,1.0685 -7.14501,1.4432 -7.14501,1.4433 -5.64445,1.8666 c -12.89332,4.2637 -30.84424,15.2151 -37.29727,22.754 l -1.30065,1.5195 -1.74766,5.1582 c -0.96121,2.83702 -2.62787,7.64661 -3.70368,10.68796 -2.35524,6.65836 -2.93504,9.5247 -3.22218,15.9296 l -0.21872,4.87878 -1.58721,6.41011 c -2.5174,10.16675 -3.59617,16.36671 -3.08124,17.7086 0.30053,0.78315 1.14146,0.64772 5.30828,-0.8549 2.09629,-0.75596 5.79707,-2.0891 8.22394,-2.96255 2.42688,-0.87345 5.30482,-1.69958 6.39542,-1.83584 l 1.98292,-0.24775 0.74833,0.40049 0.74833,0.4005 v 2.40235 2.40236 l -0.61736,0.55862 c -0.90705,0.82076 -3.54306,1.878 -7.13966,2.86355 l -3.17386,0.8697 -3.16227,1.66733 c -1.73925,0.91703 -5.43136,3.19316 -8.2047,5.05807 l -5.04242,3.39074 0.11915,4.52094 0.11915,4.52093 -1.26704,1.9083 c -2.75267,4.14583 -3.75949,9.10305 -4.61627,22.72895 -0.76669,12.19309 -1.39553,16.61642 -3.16106,22.23527 -1.05447,3.3559 -1.81481,7.04587 -2.28768,11.10223 -0.56896,4.88076 -0.70071,5.41859 -1.51263,6.17501 -0.8578,0.79916 -1.69614,0.90081 -2.31613,0.28083 z m -135.16293,-13.0379 c -1.17827,-1.09773 -2.39073,-3.97558 -2.87479,-6.82349 l -0.41973,-2.46945 0.019,-6.17361 0.019,-6.17361 0.91818,-8.03532 c 2.16673,-18.96195 5.13775,-39.85638 5.85883,-41.20373 l 0.36342,-0.67901 h 0.88637 0.88638 l 0.79719,0.86018 c 1.37726,1.48609 2.71029,4.31728 3.28647,6.98008 l 0.55538,2.56669 0.006,6.52638 0.006,6.52639 -0.548,3.35139 c -0.3014,1.84327 -1.0275,6.12952 -1.61356,9.525 -1.12148,6.49769 -1.65485,12.83631 -1.98887,23.63612 -0.11102,3.58951 -0.28755,7.50378 -0.3923,8.69837 l -0.19044,2.17198 -1.71654,0.73843 c -2.16452,0.93115 -2.83761,0.92718 -3.85728,-0.0228 z m 199.39885,-10.68668 c -4.99816,-1.56204 -7.54374,-4.5895 -8.02352,-9.54237 l -0.23921,-2.46944 0.38944,-3.88056 c 1.40606,-14.01096 8.40861,-28.17889 15.35609,-31.06929 l 1.41011,-0.58665 2.3686,0.16947 2.3686,0.16947 1.92237,0.94053 c 11.30967,5.53331 7.25452,29.18285 -7.5526,44.04661 l -2.72361,2.73403 -1.89484,-0.0236 c -1.04216,-0.013 -2.56381,-0.23267 -3.38143,-0.4882 z m 6.64887,-8.90113 c 0.78863,-0.6839 4.53247,-8.04582 6.08016,-11.95609 l 1.26694,-3.20096 0.40897,-2.74968 0.40896,-2.74968 -0.39405,-2.78639 -0.39404,-2.78639 -1.08662,-2.61017 c -0.59764,-1.43559 -1.32851,-2.70299 -1.62416,-2.81644 -0.84993,-0.32615 -2.74426,-0.24104 -3.94404,0.17721 l -1.10005,0.38348 -0.87868,1.82138 c -1.0617,2.20078 -2.13249,7.34581 -2.88369,13.85583 l -0.55679,4.82523 0.12467,4.97571 0.12466,4.97572 0.44998,0.79576 0.44997,0.79577 1.48582,-0.22532 c 0.8172,-0.12392 1.7451,-0.45016 2.06199,-0.72497 z m 55.81184,-157.99997 c -0.52716,-1.3738 1.9062,-2.7695 4.45354,-2.5544 l 1.24147,0.1048 0.10729,0.567 0.10729,0.5669 -1.69186,0.7176 c -0.93051,0.3947 -2.20792,0.8269 -2.83867,0.9604 l -1.14682,0.2429 z"
       id="path10005" /></g></svg>
