<?xml version="1.0" encoding="UTF-8" standalone="no"?>
<!-- Created with Inkscape (http://www.inkscape.org/) -->

<svg
   width="230.8927mm"
   height="231.05414mm"
   viewBox="0 0 230.8927 231.05414"
   version="1.1"
   id="svg5"
   xml:space="preserve"
   xmlns="http://www.w3.org/2000/svg"
   xmlns:svg="http://www.w3.org/2000/svg"><defs
     id="defs2" /><g
     id="layer1"
     transform="translate(1219.3448,1057.662)"><path
       style="fill:#000000;stroke-width:0.352778"
       d="m -1161.2746,-827.07404 -0.3829,-0.46139 0.084,-24.66314 0.084,-24.66313 48.1542,-0.17954 c 26.4848,-0.0987 48.1961,-0.21781 48.2474,-0.26459 0.2347,-0.2141 -0.4062,-2.5307 -2.1796,-7.87831 -1.0558,-3.18377 -5.1855,-15.71637 -9.1771,-27.85022 l -7.2574,-22.06155 v -36.21416 -36.21413 l -0.441,-0.2854 c -0.2425,-0.157 -17.7447,-0.3648 -38.8937,-0.4618 l -38.4528,-0.1764 v -24.5181 -24.518 l 56.9362,-0.089 56.9361,-0.089 0.4785,0.397 0.4784,0.3971 v 28.3176 28.3177 l 0.558,0.2141 c 0.3069,0.11782 13.1527,0.21418 28.5461,0.21418 15.3935,0 28.23927,0.0963 28.54618,0.21413 l 0.55802,0.21413 v 57.28864 57.28865 l -0.44097,0.005 c -0.24254,0.002 -13.06163,0.0422 -28.48683,0.0882 l -28.0458,0.0836 -0.6174,0.30233 -0.6173,0.30232 v 28.49951 28.49952 l -0.5398,0.20711 c -0.2968,0.11392 -25.999,0.20538 -57.1158,0.20324 l -56.5761,-0.004 z m -56.4826,-63.36961 -1.5875,-0.17639 v -52.21111 -52.2111 l 61.3914,-0.0892 61.3915,-0.0892 0.048,29.54613 0.048,29.54612 2.5028,7.58472 c 1.3765,4.1716 4.7536,14.36873 7.5047,22.66029 2.7511,8.29156 4.9105,15.16702 4.7987,15.27881 -0.1534,0.15346 -58.1194,0.33147 -61.4202,0.18862 l -0.6404,-0.0277 -1.7525,-3.79236 c -0.9639,-2.0858 -1.9032,-4.10986 -2.0874,-4.49791 -1.0121,-2.13233 -9.2928,-20.25965 -9.6289,-21.07848 -0.219,-0.53357 -0.5883,-0.97014 -0.8206,-0.97014 -0.2323,0 -0.4933,-0.19843 -0.5799,-0.44097 l -0.1575,-0.44097 -0.2932,0.27424 -0.2931,0.27423 -0.1315,15.24221 c -0.072,8.38321 -0.1873,15.29789 -0.2554,15.36597 -0.1974,0.19741 -56.28,0.25943 -58.0373,0.0642 z"
       id="path10217" /></g></svg>
