<?xml version="1.0" encoding="UTF-8" standalone="no"?>
<!-- Created with Inkscape (http://www.inkscape.org/) -->

<svg
   width="311.32089mm"
   height="125.13813mm"
   viewBox="0 0 311.32089 125.13813"
   version="1.1"
   id="svg5"
   xml:space="preserve"
   xmlns="http://www.w3.org/2000/svg"
   xmlns:svg="http://www.w3.org/2000/svg"><defs
     id="defs2" /><path
     id="path6438"
     style="fill:#000000;stroke-width:0.633693"
     d="M 155.66073,7.0478092e-5 A 62.568759,62.568759 0 0 0 94.053635,51.85066 l -0.70694,-0.0093 c -0.55007,-0.0074 -6.98851,-0.43086 -14.30765,-0.94102 -7.31914,-0.51016 -15.0986,-0.9319 -17.28732,-0.9369 l -3.9796,-0.01033 1.43454,2.49235 c 0.78892,1.37077 1.29666,2.62207 1.12809,2.78071 -0.16858,0.15865 -6.58003,-0.67392 -14.24771,-1.85053 -7.66767,-1.17661 -14.57864,-2.14316 -15.3572,-2.14716 l -1.41542,-0.0078 1.05369,2.20968 c 0.57962,1.21549 0.91553,2.34834 0.7462,2.51768 -0.16932,0.16933 -7.09576,-0.55316 -15.39234,-1.60559 C 7.4254054,53.29003 0.36067544,52.52102 0.02319544,52.63351 c -0.33749,0.1125 3.04490996,1.74517 7.51633996,3.62821 20.9732696,8.83236 33.7383196,14.15617 36.5398796,15.23886 l 3.06183,1.18339 -0.37155,-0.96842 c -0.20436,-0.53256 -0.55353,-1.69415 -0.77618,-2.58123 l -0.40463,-1.61283 2.34973,0.4408 c 1.29244,0.24246 10.67241,2.80498 20.84421,5.69475 10.17181,2.88975 18.58364,5.18399 18.69291,5.09839 0.10928,-0.08563 -0.56844,-1.62254 -1.50585,-3.41529 -0.9374,-1.79276 -1.52732,-3.43621 -1.31103,-3.65249 0.48014,-0.48015 9.08033,2.9148 9.81801,3.87573 0.003,0.0038 0.009,0.0176 0.0119,0.0217 a 62.568759,62.568759 0 0 0 61.171985,49.55305 62.568759,62.568759 0 0 0 61.38591,-50.48632 l 3.86178,-1.46348 c 2.48249,-0.94093 4.89133,-1.70615 5.35317,-1.70015 l 0.83974,0.01085 -1.88774,3.48557 -1.88774,3.48506 h 0.76998 c 0.71997,0 5.71275,-1.36068 31.10094,-8.47752 5.57184,-1.5619 10.20878,-2.762 10.30428,-2.6665 0.0955,0.09551 -0.2549,1.38845 -0.77876,2.87321 l -0.9524,2.69958 0.78755,-0.32815 c 0.43299,-0.18068 4.92191,-2.04147 9.97561,-4.13463 20.39689,-8.44803 37.65122,-15.92736 36.75434,-15.93236 -0.5228,-0.003 -6.65387,0.70514 -13.62449,1.57355 -6.97061,0.86842 -13.74325,1.57885 -15.05024,1.57923 l -2.37608,10e-4 v -0.59273 c 0,-0.32585 0.27762,-1.32393 0.61753,-2.21795 l 0.61805,-1.62522 -1.40973,0.01137 c -0.77557,0.0062 -4.11951,0.43374 -7.43056,0.95033 -3.31103,0.51659 -8.87155,1.36645 -12.35686,1.88825 -3.4853,0.52179 -6.97864,1.09764 -7.76283,1.27951 l -1.42575,0.33021 v -0.99373 c 0,-0.54674 0.44885,-1.86215 0.99735,-2.92282 0.54849,-1.06068 0.90503,-1.98624 0.7922,-2.05724 -0.2304,-0.14496 -21.05691,1.09082 -30.30564,1.79834 l -5.26066,0.40256 A 62.568759,62.568759 0 0 0 155.66075,4.7809179e-7 Z m 0,15.719969521908 a 46.84904,46.84904 0 0 1 46.84882,46.84934 46.84904,46.84904 0 0 1 -46.84882,46.84882 46.84904,46.84904 0 0 1 -46.84934,-46.84882 46.84904,46.84904 0 0 1 46.84934,-46.84934 z m -31.60376,17.20981 -0.9033,0.74879 c -1.30395,1.08127 -2.60811,4.50445 -2.60811,6.84661 v 2.01951 l 2.46445,2.34405 2.46393,2.34404 0.4625,2.15232 c 0.25439,1.18367 0.73806,2.67753 1.07487,3.3197 l 0.61237,1.16737 3.43183,1.51773 3.43132,1.51774 v 1.30431 1.30432 l 1.55546,1.55494 1.55546,1.55546 h 3.15588 c 1.73581,0 3.92712,-0.29283 4.86947,-0.65112 0.94235,-0.35828 1.8881,-0.47377 2.10116,-0.25683 0.21306,0.21694 -2.46472,5.95904 -5.95002,12.76046 l -6.33657,12.366168 -1.42575,0.95446 -1.42575,0.95447 -1.5844,-1.03818 c -0.87133,-0.57092 -1.5844,-1.29737 -1.5844,-1.61437 0,-0.317 -0.55699,-0.75326 -1.23817,-0.96945 l -1.23868,-0.39326 -1.62936,1.06763 -1.62936,1.06764 -1.19527,-1.08159 -1.19476,-1.08159 -1.68982,0.20567 -1.69034,0.20619 1.47536,2.17093 1.47588,2.17041 2.7926,1.4733 2.79311,1.47277 h 5.17384 5.17385 l 2.95124,-1.00562 2.95072,-1.00562 3.08405,-3.37396 3.08405,-3.37447 2.99517,-5.994978 2.99516,-5.99498 8.35091,-0.32453 8.3504,-0.32453 4.4359,-1.40146 c 5.74159,-1.81413 10.11657,-4.33412 13.43381,-7.73803 l 2.66082,-2.73059 1.68517,-3.69228 1.68517,-3.6928 -0.23875,-4.2323 -0.23926,-4.23178 -1.25574,-1.68568 c -0.69048,-0.92713 -2.01219,-2.13754 -2.93729,-2.68976 l -1.68207,-1.00407 h -4.15375 -4.15375 l -5.54178,2.8515 c -3.048,1.56838 -5.62582,2.85151 -5.72885,2.85151 -0.10302,0 -0.18758,-1.08608 -0.18758,-2.41381 v -2.41432 l -4.91082,0.56534 -4.91132,0.56482 -8.23774,-0.34365 -8.23826,-0.34365 -4.75268,-1.23558 c -2.61399,-0.67959 -6.88552,-2.0976 -9.49245,-3.15071 z m 1.24127,5.04982 5.06997,1.79369 c 5.64196,1.99589 15.31296,3.83716 20.23133,3.85196 l 3.21531,0.01033 0.95033,0.61392 0.95032,0.61443 -1.90065,0.02429 v -5.2e-4 c -1.04559,0.01318 -4.61045,0.13812 -7.92148,0.27751 l -6.01979,0.25321 -4.7253,-0.58033 -4.72529,-0.58032 -2.87889,-1.42989 -2.87941,-1.42989 -0.21756,-1.17667 c -0.11982,-0.64695 0.0227,-1.41596 0.31678,-1.70894 z m 62.23186,3.68763 c 0.45514,-0.04769 1.32543,0.49499 2.51819,1.68775 l 1.64021,1.63969 -0.39222,3.74913 -0.39171,3.74861 -1.58181,3.12125 c -0.8699,1.71668 -1.91693,3.32878 -2.32699,3.58221 l -0.74569,0.46096 0.43253,-1.52497 c 2.64413,-9.3251 2.78421,-10.72496 1.34772,-13.47928 -0.98407,-1.88686 -1.08541,-2.92403 -0.50023,-2.98535 z m -24.96127,1.94872 h 0.85111 c 0.46797,0 0.8506,0.18881 0.8506,0.41961 0,0.89686 -19.21659,38.035348 -20.68608,39.978438 l -1.55753,2.0593 h -0.96273 -0.96273 l 2.49442,-4.59403 c 1.37195,-2.526848 4.9876,-9.441998 8.03465,-15.367018 3.04705,-5.92503 6.97948,-13.41074 8.73901,-16.63465 z m 19.96054,0.60564 1.00976,1.01028 1.00976,1.00976 v 2.37401 c 0,1.30598 -0.42657,3.81054 -0.94775,5.56555 l -0.94774,3.19102 -2.56057,2.90887 -2.56057,2.90887 -3.30367,1.54719 c -1.81721,0.85075 -4.81519,1.86463 -6.66213,2.25309 -1.84694,0.38848 -4.77023,0.70642 -6.49573,0.70642 h -3.13727 v -1.02733 c 0,-0.56503 1.62827,-4.16038 3.61786,-7.98969 l 3.61735,-6.96289 1.92702,-1.4428 c 1.06004,-0.79378 3.49619,-2.29992 5.41311,-3.34657 l 3.48505,-1.90272 3.2675,-0.40153 z m -48.78823,4.70204 c 2.14432,0.01881 5.06158,0.08536 8.2336,0.19534 6.34404,0.21996 11.39541,0.53927 11.22516,0.70952 -0.17024,0.17025 -2.38301,0.68076 -4.91702,1.13429 l -4.60747,0.82476 -5.76347,0.03307 -5.76347,0.03359 -1.15032,-1.27124 c -0.63277,-0.6992 -1.01708,-1.40447 -0.85421,-1.56734 0.0814,-0.08144 1.45287,-0.1108 3.5972,-0.09199 z m 17.37206,5.33198 -0.28267,0.84749 -0.28267,0.84749 -4.06952,1.42007 c -2.23847,0.78115 -4.83746,1.42812 -5.77536,1.43712 l -1.70532,0.01706 -0.42581,-0.68885 -0.42582,-0.68885 0.56018,-0.56069 c 0.30811,-0.3081 2.69282,-0.85994 5.29942,-1.22628 2.60661,-0.36635 5.27199,-0.83201 5.92315,-1.03508 z" /></svg>
