<?xml version="1.0" encoding="UTF-8" standalone="no"?>
<!-- Created with Inkscape (http://www.inkscape.org/) -->

<svg
   width="528.64221mm"
   height="111.16815mm"
   viewBox="0 0 528.64221 111.16815"
   version="1.1"
   id="svg5"
   xml:space="preserve"
   xmlns="http://www.w3.org/2000/svg"
   xmlns:svg="http://www.w3.org/2000/svg"><defs
     id="defs2" /><path
     style="fill:#000000;stroke-width:0.264583"
     d="M 0.00466228,76.10841 V 41.04889 L 12.241642,50.21802 c 6.730339,5.04303 12.296511,9.22111 12.369271,9.28463 0.07276,0.0635 0.191823,11.7142 0.264584,25.89042 l 0.132291,25.77493 -12.501563,-4e-5 -12.50156272,-3e-5 z M 86.655708,80.01688 V 48.86581 l -0.396875,-0.0703 -0.396875,-0.0703 -14.91191,11.50752 -14.911909,11.50752 -0.301633,-0.17789 C 55.428949,71.38098 35.894097,56.86157 13.177102,39.9298 6.2336633,34.75461 0.42831728,30.47891 0.27633428,30.42825 L 1.2789433e-6,30.33615 0.06848128,16.1705 0.13696128,2.0048597 27.918212,21.40091 55.699463,40.79695 56.096338,40.69835 C 56.31462,40.64415 68.339933,32.33237 82.819256,22.22781 97.298573,12.12324 109.71027,3.4688797 110.40081,2.9958797 l 1.25551,-0.85999 0.0674,54.5160203 0.0674,54.51602 H 99.223411 86.655702 Z m 37.638232,-23.48541 0.0674,-54.6364603 h 11.63916 11.63916 l 0.0674,54.6364603 0.0674,54.63647 H 136.0005 124.22654 Z m 32.54797,43.12716 0.0716,-11.50945 h 22.74322 22.74322 l 0.0716,11.50945 0.0716,11.50946 h -22.8864 -22.88646 z m 81.22348,-24.73861 0.068,-36.24793 h 12.29939 12.29939 l 0.068,36.24793 0.068,36.24793 h -12.43542 -12.43542 z m 60.0598,-18.38855 0.0674,-54.6364603 h 12.03602 12.03603 l 0.0674,54.6364603 0.0674,54.63647 H 310.2286 298.05777 Z m 55.69403,54.30573 c -0.0119,-0.1819 -2.71021,-7.65308 -5.99631,-16.60261 -3.28612,-8.94953 -5.97516,-16.42799 -5.97567,-16.61881 v -0.34695 l 1.25677,0.20366 1.25678,0.20366 3.30729,-0.0312 3.30729,-0.0312 2.57619,-0.42069 2.57623,-0.42069 2.58315,-0.8222 c 1.42076,-0.45221 3.46316,-1.22616 4.53866,-1.71989 1.07553,-0.49374 2.04068,-0.8977 2.14477,-0.8977 h 0.18928 l 6.44049,18.71927 6.44046,18.71927 0.27831,0.19439 0.27829,0.19438 -12.58975,0.004 -12.58977,0.004 -0.0217,-0.33072 z m 36.64556,-54.30573 0.0674,-54.6364603 h 12.16832 12.16832 l 0.0674,54.6364603 0.0674,54.63647 h -12.30311 -12.30312 z m 83.82439,54.4024 -0.14464,-0.23405 -1.26003,-0.18777 c -0.69302,-0.10327 -3.06483,-0.70521 -5.27071,-1.33763 l -4.01069,-1.14987 -3.79452,-1.50282 C 451.06177,103.05756 444.43417,99.08409 438.443,93.71237 l -2.34561,-2.1031 -2.06261,-2.45765 c -2.49391,-2.97156 -4.39026,-5.84632 -6.06822,-9.19905 l -1.25521,-2.50807 -1.03736,-3.1591 -1.03735,-3.15911 -0.56232,-3.06407 -0.56232,-3.06409 -0.007,-5.82083 -0.007,-5.82083 0.45876,-3.30729 c 0.60904,-4.39045 1.58599,-8.69119 2.85488,-12.56771 l 1.03928,-3.175 1.53477,-3.175 c 4.41381,-9.13084 10.24734,-15.80024 18.69149,-21.3697903 l 2.38125,-1.57061 3.88514,-1.92652 3.88512,-1.92653 4.10255,-1.34858 4.10255,-1.34858 3.25713,-0.69916 c 1.7916,-0.38454 3.73353,-0.75373 4.31561,-0.82042 L 475.06487,9.7030522e-6 474.99347,11.88409 l -0.0714,11.88407 -2.53669,0.83798 -2.53669,0.83798 -2.63123,1.31724 -2.63123,1.31724 -2.39974,1.64361 -2.39975,1.64362 -2.09449,1.97034 -2.09447,1.97034 -1.71495,2.2781 -1.71493,2.27811 -1.28658,2.51354 c -1.56049,3.04865 -2.4451,5.58274 -3.2326,9.26042 l -0.59492,2.77812 -0.004,3.96875 -0.004,3.96875 0.58859,2.36536 0.58857,2.36536 1.17959,2.49015 1.17959,2.49014 1.25519,1.75908 1.25515,1.75908 2.14006,2.11667 2.14008,2.11666 2.31262,1.64042 2.31259,1.64041 3.22591,1.65055 3.2259,1.65055 3.175,1.11083 3.175,1.11084 v 11.07633 11.07632 l 0.26459,0.19439 0.26458,0.19438 -0.44741,0.004 c -0.24606,0.002 -0.5125,-0.10127 -0.59206,-0.23 z m 13.87176,-11.03978 0.1323,-11.27407 2.85054,-1.00293 2.85054,-1.00292 2.70571,-1.32303 2.70571,-1.32304 2.4062,-1.5817 c 1.32342,-0.86994 3.20651,-2.26064 4.18467,-3.09044 l 1.77848,-1.50872 0.31324,0.12682 c 0.17227,0.0698 2.39683,1.64074 4.94345,3.49108 3.92242,2.84997 11.82735,8.269 13.62604,9.34097 l 0.52917,0.31537 -2.28264,2.2058 -2.28264,2.2058 -2.34757,1.75279 c -1.29117,0.96404 -3.88202,2.67043 -5.75744,3.79198 l -3.40987,2.03919 -3.60159,1.64034 -3.60159,1.64035 -3.57187,1.24623 c -1.96453,0.68542 -5.33305,1.69785 -7.48562,2.24984 -2.15254,0.55198 -3.98809,1.07798 -4.07898,1.16887 -0.0909,0.0909 -0.29424,0.16531 -0.4519,0.16537 l -0.28663,1.2e-4 z M 156.90259,57.06063 V 45.28668 h 22.75416 22.75417 v 11.77395 11.77396 h -22.75417 -22.75416 z m 176.2125,10.23626 -0.92604,-0.18209 V 56.314 45.5132 l 6.08542,-0.065 6.08542,-0.065 2.02514,-0.5601 2.02515,-0.5601 1.38343,-0.70103 1.38342,-0.70104 1.26614,-1.18433 1.26617,-1.18435 0.57486,-1.22294 0.57483,-1.22294 0.13573,-1.86994 0.13573,-1.86993 -0.56642,-1.49667 -0.56644,-1.49666 -1.15697,-1.06648 -1.157,-1.06646 -1.37216,-0.69533 -1.37215,-0.69532 -1.98178,-0.50686 -1.98181,-0.50686 -3.48295,-0.27751 -3.48292,-0.2775 -2.77813,0.23212 -2.77812,0.23213 -0.20111,-0.17396 -0.20111,-0.17395 0.0688,-12.28722 0.0688,-12.2872203 5.68854,0.0183 5.68855,0.0183 2.38125,0.32516 c 1.30968,0.17884 3.82738,0.61526 5.5949,0.96983 l 3.21366,0.64466 2.87176,0.93711 2.87176,0.93711 2.64583,1.29037 2.64584,1.29036 2.31769,1.65116 2.3177,1.6511603 1.86783,1.96635 1.86785,1.96635 1.21867,1.88389 1.2187,1.88389 0.889,2.10792 c 1.0128,2.40139 1.80054,5.2779 2.18397,7.97469 l 0.26332,1.85209 -0.003,3.30729 -0.003,3.30729 -0.25667,1.98437 c -0.14119,1.09141 -0.50914,2.99641 -0.8177,4.23334 l -0.56102,2.24896 -0.97036,2.24895 -0.97039,2.24896 -1.43023,2.11667 -1.4302,2.11667 -1.90731,1.88438 -1.90727,1.88438 -2.23782,1.48899 -2.23782,1.48899 -2.22822,1.04417 c -4.19891,1.96769 -8.82687,3.27768 -14.63437,4.14241 l -2.65781,0.39575 -5.82084,0.10297 -5.82083,0.10298 -0.92604,-0.1821 z m 172.24376,-33.73529 -2.51354,-2.45104 -2.49661,-1.66451 -2.49658,-1.6645 -2.66279,-1.27542 c -1.46453,-0.70148 -3.64266,-1.59682 -4.84032,-1.98964 l -2.17752,-0.7142 -0.0714,-11.87976 -0.0714,-11.8797603 0.93927,8e-5 0.93927,7e-5 0.25136,0.22433 c 0.13824,0.12339 1.14432,0.37646 2.23573,0.5624 1.0914,0.18593 3.42937,0.73285 5.19546,1.21538 l 3.21106,0.87732 3.13894,1.23044 c 7.79627,3.05609 15.1788,7.9124903 20.33683,13.3780503 2.28214,2.4182 3.83646,4.30746 3.83646,4.66319 v 0.26847 l -3.90261,2.32908 c -4.79044,2.85894 -7.80811,4.86687 -10.3942,6.91618 -6.43652,5.10054 -5.36806,4.86633 -8.45736,1.85384 z M 156.90259,14.33042 V 1.8950097 h 22.75416 22.75417 V 14.33042 26.76584 h -22.75417 -22.75416 z m 55.47519,12.25992 -0.17727,-0.17728 V 14.15315 1.8932397 l 38.56302,0.067 38.56302,0.067 V 14.33036 26.63349 l -38.38575,0.067 -38.38575,0.067 z M 528.3776,22.40022 c 0,-0.0728 0.0595,-0.1323 0.13229,-0.1323 0.0728,0 0.1323,0.0595 0.1323,0.1323 0,0.0728 -0.0595,0.13229 -0.1323,0.13229 -0.0728,0 -0.13229,-0.0595 -0.13229,-0.13229 z"
     id="path6095" /></svg>
