<?xml version="1.0" encoding="UTF-8" standalone="no"?>
<!-- Created with Inkscape (http://www.inkscape.org/) -->

<svg
   width="221.39978mm"
   height="127.41998mm"
   viewBox="0 0 221.39978 127.41998"
   version="1.1"
   id="svg5"
   xml:space="preserve"
   xmlns="http://www.w3.org/2000/svg"
   xmlns:svg="http://www.w3.org/2000/svg"><defs
     id="defs2" /><path
     style="fill:#000000;stroke-width:0.130687"
     d="m 34.905071,127.27978 c -7.6739,-0.45746 -14.3616,-2.95474 -20.5831,-7.68596 l -1.3068,-0.99382 -1.9758,-1.96131 -1.9756996,-1.96132 -0.9968,-1.26617 c -0.5482,-0.69639 -1.4705,-1.99019 -2.0495,-2.87511 l -1.0526,-1.60893 -0.8447,-1.66049 C 1.7725714,102.65198 0.53737143,98.15808 0.13997143,92.7853 L -2.8570098e-5,90.89242 0.03897143,45.47886 l 0.039,-45.41357038 H 7.6909714 15.304071 V 30.28655 60.50781 h 0.1105 c 0.061,0 0.3399,-0.16393 0.6202,-0.36428 5.5421,-3.96109 12.4582,-6.22949 19.8513,-6.51103 l 2.091,-0.0796 2.287,0.20917 2.287,0.20917 1.8296,0.38093 c 3.489,0.7264 6.3299,1.73586 9.4748,3.36661 l 1.8949,0.98261 1.4376,0.94494 c 4.4295,2.91166 8.2224,6.80053 11.0529,11.3327 l 0.9284,1.48661 0.8941,1.82962 c 1.9773,4.04662 3.0708,7.8731 3.5854,12.5459 l 0.1726,1.56824 0.015,-44.20472 0.015,-44.204710379262 h 7.6452 7.6452 V 25.02852 50.05706 l 7.3511,-0.006 7.351099,-0.006 0.071,22.319 0.071,22.31901 0.3418,1.43755 c 1.5682,6.59564 5.4362,11.49268 11.4526,14.49936 l 0.9592,0.47937 1.3278,0.44244 c 0.7303,0.24335 1.9453,0.57497 2.7,0.73691 l 1.3722,0.29446 h 2.6137 2.6137 l 1.3723,-0.29446 c 0.7547,-0.16194 1.9687,-0.49324 2.6979,-0.7362 l 1.3257,-0.44176 1.1877,-0.59652 c 1.4927,-0.74969 2.415,-1.33295 3.7407,-2.36572 l 1.0455,-0.81449 0.992,-1.02766 c 2.7778,-2.87768 4.5125,-6.14652 5.504,-10.37176 l 0.2913,-1.24152 0.07,-22.31693 0.07,-22.31693 7.3512,-0.0305 7.3511,-0.0304 0.013,15.87842 0.014,15.87841 0.1791,-1.37221 c 0.4806,-3.68038 1.6585,-7.45603 3.4607,-11.09275 l 0.882,-1.77987 1.1773,-1.76427 c 1.5614,-2.33989 2.6379,-3.66251 4.5303,-5.56593 l 1.5708,-1.57999 1.3722,-1.0897 c 4.7249,-3.75214 9.9952,-6.16126 15.8288,-7.23552 l 1.7799,-0.32778 2.2538,-0.15983 2.2538,-0.15982 0.1213,0.2168 0.1214,0.21681 12.7034,-6e-5 12.7036,-5e-5 0.034,7.1852 0.034,7.1852 -14.1479,0.04 -14.1479,0.04 -1.3069,0.28335 c -4.7211,1.02362 -8.5214,3.2124 -11.6032,6.68282 l -0.887,0.99878 -0.8315,1.24152 c -1.4434,2.15483 -2.3706,4.2882 -3.0479,7.01246 l -0.3523,1.41682 -0.038,22.64144 -0.038,22.64144 h -7.3813 -7.3813 l -0.018,-15.97642 -0.018,-15.97643 -0.1191,0.91481 c -0.065,0.50314 -0.2982,1.76609 -0.5171,2.80655 l -0.3981,1.89177 -0.6299,1.89814 -0.6298,1.89816 -0.6723,1.48568 c -1.2747,2.81687 -2.805,5.30222 -4.7985,7.79306 l -1.1505,1.43755 -1.3728,1.37221 -1.3728,1.37221 -1.344,1.07823 c -5.3095,4.25957 -11.1867,6.77151 -17.9976,7.6923 l -1.6989,0.22968 -2.7445,-0.002 -2.7444,-0.002 -1.6989,-0.22744 c -6.7867,-0.90853 -12.5423,-3.36468 -17.9006,-7.63894 l -1.5648,-1.24821 -1.318599,-1.32663 -1.3186,-1.32661 -1.07,-1.33014 c -3.4758,-4.32124 -5.8554,-9.19427 -7.0823,-14.50356 l -0.3823,-1.6543 -0.1996,-1.69708 c -0.1098,-0.93339 -0.2185,-2.02052 -0.2416,-2.41585 -0.023,-0.39532 -0.053,6.94109 -0.066,16.30315 l -0.024,17.02186 h -7.6452 -7.6452 l -0.016,-17.41397 -0.016,-17.41398 -0.1652,1.56823 c -0.7404,7.02847 -3.2322,13.33678 -7.4741,18.92157 l -1.0138,1.33484 -2.1593,2.16671 -2.1593,2.16671 -1.1108,0.85577 c -0.611,0.47066 -1.7291,1.26868 -2.4849,1.77336 l -1.374,0.91759 -1.7624,0.92206 c -3.2451,1.69769 -5.783,2.62408 -9.3423,3.41016 l -1.6989,0.37521 -1.895,0.20235 c -1.0422,0.11129 -2.5124,0.22475 -3.2672,0.25214 l -1.3722,0.0498 z m 5.2275,-15.42742 c 3.4427,-0.50805 6.7688,-1.89036 9.6671,-4.01755 l 0.9765,-0.71668 1.2277,-1.18647 1.2277,-1.18646 0.9512,-1.26158 0.9513,-1.26156 0.6304,-1.15614 c 1.273,-2.33432 2.0819,-4.59472 2.4743,-6.91348 l 0.1978,-1.16903 0.079,-1.69893 0.079,-1.69892 -0.2248,-1.76051 -0.2248,-1.76051 -0.4357,-1.50665 c -0.2396,-0.82867 -0.6534,-2.02424 -0.9194,-2.65686 l -0.4836,-1.15019 -0.7228,-1.20216 c -0.8179,-1.36054 -1.5628,-2.37579 -2.6717,-3.64157 l -0.7632,-0.87116 -1.0745,-0.91073 c -0.5909,-0.50089 -1.5743,-1.24643 -2.1852,-1.65673 l -1.1109,-0.74603 -1.4375,-0.69422 -1.4376,-0.69423 -1.4375,-0.45576 -1.4376,-0.45574 -1.3068,-0.24271 -1.3069,-0.24271 h -2.483 -2.4831 l -1.3069,0.24523 c -3.1677,0.59442 -5.7488,1.66733 -8.4758,3.52332 l -1.1574,0.78772 -1.3728,1.31066 -1.3728,1.31067 -0.8148,1.05058 c -2.8699,3.69989 -4.2448,7.44147 -4.5916,12.49465 l -0.086,1.25055 0.1609,1.62455 0.1608,1.62456 0.3828,1.5029 c 2.0549,8.06838 8.1346,14.01403 16.2518,15.89324 l 1.4375,0.33281 1.3069,0.10702 1.3068,0.10701 1.5029,-0.0624 c 0.8266,-0.0343 1.8852,-0.11882 2.3524,-0.18777 z"
     id="path6434" /></svg>
