<?xml version="1.0" encoding="UTF-8" standalone="no"?>
<!-- Created with Inkscape (http://www.inkscape.org/) -->

<svg
   width="514.27039mm"
   height="72.237038mm"
   viewBox="0 0 514.27039 72.237038"
   version="1.1"
   id="svg5"
   xml:space="preserve"
   xmlns="http://www.w3.org/2000/svg"
   xmlns:svg="http://www.w3.org/2000/svg"><defs
     id="defs2" /><path
     style="fill:#000000;stroke-width:0.626725"
     d="m 259.00732,70.321645 c -2.70544,-1.35193 -4.48245,-2.80022 -6.04129,-4.92379 -1.27011,-1.73023 -2.50146,-4.37479 -2.89807,-6.22411 -0.45221,-2.10856 -0.61417,-10.60836 -0.47045,-24.68894 l 0.21919,-21.47331 1.11508,-2.5069 c 0.6133,-1.3787902 2.12862,-3.5470602 3.36738,-4.8183902 1.23879,-1.27131 3.69274,-2.94162 5.45324,-3.71178 2.21437,-0.96871 4.87744,-1.48653998 8.64035,-1.68009998 l 5.43942,-0.27977 4.2893,1.30284998 c 2.73058,0.82938 5.25983,2.13357 6.96001,3.58886 1.46888,1.25731 3.26285,3.44672 3.9866,4.86536 0.97937,1.9197402 1.427,4.3466502 1.75048,9.4902202 0.23901,3.80097 0.24909,7.1309 0.0224,7.39983 -0.22672,0.26895 -4.19695,0.40996 -8.82275,0.31336 l -8.41052,-0.17552 -0.31337,-7.14134 -0.31334,-7.14134 -0.99977,-0.62833 c -0.54987,-0.34557 -1.71479,-0.44886 -2.58871,-0.22951 -0.92222,0.23146 -1.74824,0.99333 -1.9686,1.81577 -0.20883,0.77935 -0.38355,11.05803 -0.38826,22.84151 -0.005,12.42655 0.24815,22.09968 0.60265,23.03212 0.46663,1.22729 1.05129,1.60761 2.47137,1.60761 1.21176,0 2.20021,-0.48553 2.83577,-1.3929 0.743,-1.06079 0.97562,-3.07812 0.97562,-8.46078 v -7.06788 h -1.88017 -1.88016 v -5.01379 -5.0138 h 10.34095 c 6.46588,0 10.34672,0.23484 10.35636,0.62671 0.009,0.34471 0.0229,8.59397 0.0323,18.3317 l 0.0178,17.70498 -5.31035,0.18035 -5.31033,0.18037 -0.80177,-2.21723 c -0.44099,-1.21945 -0.97438,-2.21721 -1.18535,-2.21721 -0.21096,0 -1.2119,0.88081 -2.22431,1.95736 -1.01242,1.07655 -2.74828,2.34567 -3.85748,2.82026 -1.1092,0.4746 -3.67289,0.8629 -5.69709,0.8629 -2.85037,0 -4.54478,-0.43195 -7.51324,-1.91531 z m 226.74656,0.70961 c -1.55114,-0.63091 -3.75128,-1.63266 -4.88919,-2.22613 -1.13791,-0.59348 -2.76376,-2.12903 -3.61302,-3.41233 -0.84926,-1.28332 -1.95803,-4.28724 -2.46394,-6.67539 -0.50592,-2.38816 -0.92474,-6.10475 -0.93073,-8.25913 l -0.0107,-3.91703 h 8.46078 8.46078 v 5.99509 c 0,3.29729 0.29194,6.5406 0.64876,7.20734 0.44783,0.83675 1.31457,1.21224 2.79821,1.21224 1.58322,0 2.35216,-0.37146 2.919,-1.41013 0.43581,-0.79859 0.71883,-3.25949 0.65258,-5.67459 -0.0643,-2.34547 -0.4365,-4.86151 -0.82702,-5.59121 -0.39052,-0.72971 -1.56708,-2.04789 -2.61457,-2.9293 -1.0475,-0.88142 -4.1845,-3.12995 -6.97115,-4.99676 -2.78663,-1.86681 -6.16536,-4.25593 -7.50829,-5.30916 -1.53603,-1.20465 -3.09596,-3.32144 -4.2056,-5.70687 -1.0538,-2.26532 -1.9319,-5.46575 -2.18117,-7.94956 -0.29274,-2.91703 -0.10944,-5.54083 0.61404,-8.79305 l 1.03129,-4.6354102 2.57225,-2.65015 c 1.99394,-2.05433 3.55655,-2.94914 6.95026,-3.97994 L 489.02447,4.8241896e-6 494.75328,0.33760482 c 3.15084,0.18569 7.13893,0.82336998 8.86243,1.41710998 1.72349,0.59372 4.08384,1.95926 5.2452,3.03451 1.16138,1.07526 2.52198,2.91277 3.02357,4.08333 0.50159,1.1705702 1.07376,4.6253902 1.27149,7.6773802 l 0.3595,5.54907 h -8.24019 -8.24019 l -0.009,-3.60367 c -0.005,-1.98201 -0.36416,-4.30873 -0.79793,-5.17048 -0.48695,-0.9674 -1.42747,-1.64122 -2.45842,-1.76133 -1.22789,-0.14302 -1.94872,0.23127 -2.72406,1.41459 -0.78207,1.1936 -0.98618,2.55141 -0.79038,5.25817 0.20274,2.80281 0.61982,4.01271 1.7985,5.21708 0.844,0.8624 4.77783,3.7007 8.74186,6.30731 3.96404,2.6066 7.96779,5.54489 8.89723,6.52954 0.92945,0.98465 2.33087,3.20038 3.11431,4.92388 l 1.42441,3.13362 0.0194,8.77415 0.0194,8.77414 -1.28321,2.18435 c -0.70577,1.2014 -2.48087,3.09784 -3.94469,4.21433 -1.4638,1.11649 -4.11033,2.46023 -5.88119,2.98612 -1.90107,0.56455 -5.54737,0.94414 -8.90315,0.92684 -4.00675,-0.0206 -6.51549,-0.36773 -8.50372,-1.17639 z M 11.940601,43.877685 c -0.005,-14.90823 -0.22578,-27.44598 -0.49,-27.86169 -0.29631,-0.46622 -2.5141498,-0.82646 -5.7875998,-0.94009 L 0.35579118,14.891655 0.17791118,8.1543748 2.1179225e-5,1.4170848 H 20.389761 40.779531 v 6.89398 6.8939602 h -5.64052 -5.64052 v 27.88924 27.88925 h -8.77415 -8.77414 l -0.009,-27.10583 z m 44.92425,26.63578 c -0.15598,-0.25853 -1.14727,-5.12348 -2.20302,-10.81099 -1.05572,-5.68753 -2.65822,-14.28933 -3.56108,-19.11511 -0.90285,-4.82578 -1.94659,-10.6073 -2.31943,-12.84784 -0.37284,-2.24054 -1.57235,-8.94001 -2.6656,-14.88769 -1.09324,-5.9476902 -1.84804,-10.9536402 -1.67733,-11.1243502 0.17072,-0.17073 4.17483,-0.3104 8.89807,-0.3104 h 8.58768 l 0.38848,2.35022 c 0.21364,1.29262 0.39156,3.66679 0.39535,5.27591 0.004,1.6091202 0.1781,3.3717802 0.38732,3.9170202 0.27563,0.71826 1.23056,0.99135 3.46666,0.99135 1.89631,0 3.19818,-0.30205 3.3766,-0.78342 0.15971,-0.43087 0.50338,-3.1806102 0.76373,-6.1105602 l 0.47338,-5.32715 8.93082,-0.17393 8.93082,-0.17392 v 1.52191 c 0,0.83705 -1.09371,7.2608902 -2.43049,14.2751902 -1.33678,7.0143 -2.72879,14.44543 -3.09337,16.51363 -0.36458,2.06818 -1.53307,8.41377 -2.59665,14.1013 -1.06358,5.68753 -2.35599,12.59716 -2.87204,15.35474 -0.51603,2.7576 -1.07945,5.64836 -1.25204,6.42394 l -0.31377,1.41013 h -9.66531 c -5.31591,0 -9.79287,-0.21153 -9.94878,-0.47005 z m 11.86197,-28.5526 c 0.55629,-5.2365 1.05283,-10.93105 1.10341,-12.65454 l 0.092,-3.13363 h -3.13363 -3.13362 l 0.13093,1.88019 c 0.072,1.03409 0.58301,6.95664 1.13565,13.16121 0.55265,6.20457 1.15657,11.70409 1.34206,12.22113 0.25452,0.7095 0.47394,0.58521 0.89456,-0.50669 0.3065,-0.79571 1.01245,-5.73117 1.56874,-10.96767 z m 24.69756,-5.76056 V 1.4170848 h 8.767679 8.76769 l 0.16309,28.0459302 0.16309,28.04591 7.83407,0.31337 7.83405,0.31336 0.18582,5.0117 c 0.10215,2.75642 0.0263,5.6472 -0.16859,6.42392 l -0.35444,1.41224 H 110.02058 93.424321 Z m 36.976739,0 V 1.4170848 h 8.77413 8.77415 V 14.264945 c 0,7.06632 0.24095,12.84785 0.53543,12.84785 0.29448,0 1.16182,-2.1857 1.92742,-4.85712 0.7656,-2.67141 2.23999,-7.67738 3.27644,-11.12435 1.03644,-3.4469902 2.09584,-6.9723202 2.35422,-7.8340702 l 0.46979,-1.5668 7.93949,-0.17535 7.93946,-0.17534 v 1.21869 c 0,0.67027 -1.24399,4.83859 -2.76443,9.2629002 -1.52045,4.42434 -3.68014,10.96192 -4.79933,14.52799 l -2.03486,6.48378 2.36395,8.24425 c 1.30018,4.53434 3.16296,10.78249 4.1395,13.88478 0.97655,3.10229 2.35449,7.82105 3.06209,10.48613 0.70759,2.66506 1.28653,4.99952 1.28653,5.18768 0,0.18815 -4.00786,0.26383 -8.90635,0.16824 l -8.90636,-0.17393 -1.98043,-7.83407 c -1.08925,-4.30872 -2.62156,-10.5838 -3.40514,-13.94461 -0.78356,-3.36081 -1.66604,-6.11056 -1.96105,-6.11056 -0.29501,0 -0.53637,6.34558 -0.53637,14.10131 v 14.1013 h -8.77415 -8.77413 z m 47.63105,0 V 1.4170848 h 8.77414 8.77415 v 34.7832202 34.78321 h -8.77415 -8.77414 z m 25.6957,0.0199 V 1.4171348 l 7.36402,0.007 7.36401,0.007 3.05581,9.5502102 c 1.6807,5.25261 3.9629,12.2034 5.07155,15.4462 l 2.01574,5.89598 0.40373,-1.50892 c 0.22205,-0.82989 0.4076,-7.78399 0.4123,-15.45353 l 0.009,-13.9446302 h 7.20734 7.20732 v 34.8025102 34.80249 l -7.67738,-0.17588 -7.67738,-0.17588 -1.97642,-6.26725 c -1.08701,-3.44699 -3.20221,-10.35661 -4.70042,-15.35476 l -2.72401,-9.08749 -0.31337,15.35474 -0.31336,15.35476 -7.36401,0.17659 -7.36402,0.17659 v -34.8031 z m 94.00868,-0.0199 V 1.4170848 h 8.77415 8.77413 v 12.5345002 12.53448 h 3.13362 3.13362 V 13.951585 1.4170848 h 8.77415 8.77414 v 34.7832202 34.78321 h -8.76259 -8.7626 l -0.16824,-14.57135 -0.16824,-14.57134 h -2.82026 -2.82026 l -0.16824,14.57134 -0.16824,14.57135 h -8.76259 -8.76258 z m 47.63106,-0.0107 V 1.3950548 l 14.88471,0.16806 14.8847,0.16806 v 6.58061 6.5806002 l -5.95389,0.31336 -5.95388,0.31337 -0.1849,5.32715 c -0.10162,2.92995 -0.0258,5.96172 0.16859,6.73729 l 0.35353,1.41013 h 5.31522 5.31522 v 6.26725 6.26725 h -5.31522 -5.31522 l -0.35136,1.41013 c -0.19324,0.77556 -0.26913,4.37139 -0.1686,7.99074 l 0.18274,6.5806 6.73729,0.17788 6.73728,0.17789 v 6.5594 6.55942 h -15.6681 -15.66811 z m 46.39933,31.50425 c -0.38988,-1.80966 -1.14251,-5.96955 -1.67252,-9.24418 -0.53002,-3.27463 -1.65872,-9.62023 -2.50825,-14.1013 -0.84954,-4.48108 -2.22153,-11.95478 -3.04886,-16.6082 -0.82736,-4.65344 -2.22002,-12.26814 -3.09481,-16.92156 -0.87479,-4.6534402 -1.59379,-8.6723002 -1.59779,-8.9308402 -0.004,-0.25852 4.04771,-0.47004 9.00377,-0.47004 h 9.01102 l 0.54652,6.11056 0.54652,6.1105802 h 3.44699 3.44699 l 0.47336,-5.3271602 c 0.26035,-2.92994 0.60404,-5.67969 0.76373,-6.11057 0.2134,-0.57571 2.62182,-0.78341 9.08419,-0.78341 h 8.79381 v 1.04195 c 0,0.57307 -0.85771,5.57903 -1.90603,11.1243602 -1.04834,5.54532 -3.15202,16.56901 -4.67485,24.49708 -1.52283,7.92806 -3.19637,17.11794 -3.71894,20.42195 -0.52259,3.30401 -1.26254,7.46389 -1.64435,9.24418 l -0.69418,3.23691 h -9.92373 -9.92373 z m 12.18864,-21.23973 c 0.5193,-3.57106 1.18595,-9.4541 1.48146,-13.07343 0.29551,-3.61933 0.33532,-6.81021 0.0885,-7.09085 -0.24685,-0.28063 -1.68572,-0.42165 -3.19752,-0.31337 l -2.74874,0.19688 0.12329,1.88018 c 0.0679,1.03409 0.61254,7.46466 1.21054,14.29013 0.62955,7.18569 1.30007,12.0297 1.59279,11.50663 0.27803,-0.49683 0.93041,-3.82511 1.4497,-7.39617 z m 25.39311,-10.20567 V 1.4177348 l 9.87091,0.016 c 5.42899,0.009 12.64374,0.28585 16.03276,0.61547 4.32773,0.4209 6.89023,1.00865 8.60886,1.97455 1.34583,0.75642 3.14147,2.38315 3.99027,3.61495 0.84883,1.23181 1.83289,3.5087702 2.18683,5.0599102 0.37471,1.64211 0.63854,11.85282 0.63156,24.44226 -0.007,11.89209 -0.24329,22.81759 -0.52601,24.27887 -0.28274,1.46127 -1.16248,3.60318 -1.955,4.75976 -0.87683,1.27966 -2.56637,2.55806 -4.31575,3.26555 l -2.87486,1.16264 -15.82479,0.23564 -15.82478,0.23568 z m 22.18674,22.16583 c 0.31061,-0.29153 0.78734,-1.88347 1.05942,-3.53765 0.27206,-1.65415 0.50473,-10.48126 0.51704,-19.61577 0.0124,-9.1345 -0.22821,-17.68814 -0.53454,-19.00806 -0.30635,-1.31993 -0.68772,-2.53061 -0.84748,-2.69039 -0.15989,-0.15972 -1.31256,-0.45636 -2.56172,-0.65908 l -2.27119,-0.36855 v 23.63396 23.63398 l 2.03686,-0.4292 c 1.12027,-0.23605 2.29099,-0.66771 2.60161,-0.95924 z"
     id="path6688" /></svg>
