<?xml version="1.0" encoding="UTF-8" standalone="no"?>
<!-- Created with Inkscape (http://www.inkscape.org/) -->

<svg
   width="58.962559mm"
   height="37.868744mm"
   viewBox="0 0 58.962559 37.868744"
   version="1.1"
   id="svg5"
   xml:space="preserve"
   xmlns="http://www.w3.org/2000/svg"
   xmlns:svg="http://www.w3.org/2000/svg"><defs
     id="defs2" /><g
     id="layer1"
     transform="translate(84.675882,-126.40049)"><path
       style="fill:#000000;stroke-width:0.0846667"
       d="m -57.847794,164.20619 -0.800444,-0.0473 -0.102512,-0.381 c -0.05638,-0.20955 -0.165881,-0.6858 -0.243332,-1.05834 -0.07745,-0.37253 -0.212228,-0.98213 -0.299504,-1.35466 -0.08728,-0.37254 -0.219582,-0.96309 -0.294014,-1.31234 -0.470261,-2.20657 -0.739466,-3.13261 -0.971789,-3.34286 -0.157325,-0.14237 -0.159464,-0.0733 -0.109937,3.54616 l 0.05051,3.69137 -0.203933,-0.002 c -0.270659,-0.002 -1.219162,-0.13681 -2.108934,-0.29924 -0.742122,-0.13547 -2.986486,-0.63325 -3.030406,-0.67211 -0.03869,-0.0342 -0.330275,-1.19964 -0.48738,-1.94797 -0.07821,-0.37253 -0.210453,-0.96308 -0.293875,-1.31233 -0.08342,-0.34925 -0.217363,-0.9398 -0.297646,-1.31234 -0.338799,-1.57211 -0.577254,-2.33715 -0.78793,-2.52791 -0.130609,-0.11827 -0.138628,0.10335 -0.114663,3.16888 l 0.02577,3.29603 h -0.186462 c -0.102553,0 -0.670768,-0.1612 -1.262699,-0.35822 l -1.076239,-0.35822 -0.05396,-2.32995 c -0.04242,-1.83165 -0.11298,-7.1809 -0.177587,-13.46361 l -0.0039,-0.381 0.635,-0.0642 c 0.34925,-0.0353 1.4351,-0.0543 2.413,-0.0423 1.982278,0.0243 2.145536,0.0627 2.700688,0.63423 0.369498,0.38042 0.759472,1.41083 0.945605,2.49853 0.205067,1.19835 0.134693,3.90572 -0.124531,4.79089 -0.23748,0.81092 -0.617754,1.5548 -0.922393,1.80434 l -0.243947,0.19984 0.190359,0.254 c 0.21154,0.28226 0.768471,1.88214 0.884196,2.54 0.04096,0.23283 0.154868,0.78528 0.253133,1.22766 0.09827,0.44239 0.256599,1.16629 0.35185,1.60867 0.09525,0.44238 0.188376,0.82021 0.206945,0.83961 0.02982,0.0312 0.07276,-1.11143 0.0586,-1.55928 -0.0029,-0.0931 -0.02887,-2.76013 -0.05762,-5.92666 -0.02875,-3.16654 -0.0751,-6.33529 -0.103001,-7.04168 -0.0279,-0.70639 -0.02491,-1.43719 0.0066,-1.624 l 0.05738,-0.33965 2.427711,0.0216 c 2.243477,0.02 2.457037,0.0349 2.814145,0.19608 0.694103,0.31337 1.121054,1.02926 1.453274,2.43679 0.158362,0.67093 0.180457,1.02298 0.183372,2.92185 0.003,1.96625 -0.01315,2.21763 -0.181068,2.81575 -0.235449,0.83864 -0.672822,1.71888 -0.984436,1.98124 -0.219796,0.18506 -0.230917,0.21857 -0.116044,0.34967 0.397739,0.45395 0.785613,1.69527 1.30195,4.16667 0.07297,0.34925 0.201484,0.9398 0.285594,1.31233 0.08411,0.37254 0.182783,0.84879 0.219276,1.05834 l 0.06635,0.381 0.06715,-0.46567 c 0.03693,-0.25612 0.04948,-0.75142 0.02787,-1.10067 -0.02161,-0.34925 -0.06063,-2.94005 -0.08672,-5.75733 -0.02609,-2.81728 -0.06653,-6.28809 -0.08986,-7.71291 l -0.04242,-2.59057 0.778479,-0.0553 c 1.011982,-0.0718 1.70213,-0.0682 1.822115,0.01 0.100329,0.065 0.138903,2.10195 0.253845,13.40477 l 0.05647,5.55323 -0.838151,0.0555 c -0.917772,0.0608 -2.588306,0.0506 -3.839929,-0.0233 z m -5.448549,-2.18352 c -0.02147,-0.0824 -0.04044,-0.0355 -0.04217,0.10423 -0.0017,0.1397 0.01584,0.2071 0.03903,0.14977 0.02319,-0.0573 0.0246,-0.17162 0.0031,-0.254 z m 3.578154,-9.50348 c 0.498997,-0.25457 0.685921,-1.00189 0.510594,-2.04135 -0.145078,-0.86011 -0.377116,-1.09328 -1.088008,-1.09328 h -0.509612 l 0.02676,1.62984 c 0.01472,0.8964 0.03157,1.63935 0.03743,1.651 0.04555,0.0904 0.75898,-0.0116 1.022828,-0.14621 z m -7.230838,-0.49879 c 0.31157,-0.19 0.461544,-0.62388 0.460871,-1.33333 -10e-4,-1.08747 -0.285821,-1.48121 -1.114719,-1.54116 l -0.520206,-0.0376 0.0557,0.65891 c 0.03063,0.36241 0.0557,1.03152 0.0557,1.48693 0,0.79135 0.0084,0.82962 0.1905,0.86469 0.404965,0.078 0.623264,0.0534 0.872156,-0.0984 z m 17.013678,11.93927 c -1.029174,-0.33639 -1.817028,-1.56233 -2.320471,-3.61077 -0.472568,-1.92282 -0.6392,-3.91417 -0.577405,-6.90034 0.04357,-2.10551 0.07783,-2.44318 0.472398,-4.65666 0.211638,-1.18726 0.86383,-2.56073 1.526356,-3.21441 0.625688,-0.61733 1.139859,-0.80821 1.987164,-0.73772 0.912971,0.0759 1.204425,0.20248 1.783043,0.77406 1.069161,1.05616 1.717053,3.00424 2.007727,6.03682 0.114083,1.19022 0.05501,5.13514 -0.09412,6.28525 -0.11281,0.86999 -0.481228,2.61025 -0.595735,2.81401 -0.04544,0.0809 -0.08262,0.19793 -0.08262,0.26015 0,0.28992 -0.771174,1.66357 -1.193129,2.12525 -0.637027,0.697 -1.093642,0.89716 -2.024205,0.88732 -0.395816,-0.004 -0.795866,-0.0325 -0.889,-0.063 z m 1.379722,-4.71733 c 0.290803,-0.20369 0.606675,-0.90891 0.749764,-1.67392 0.208565,-1.1151 0.2558,-4.47771 0.07824,-5.57012 -0.23994,-1.47623 -0.523079,-2.16575 -0.988047,-2.4062 -0.220674,-0.11411 -0.267014,-0.11302 -0.456002,0.0108 -0.875826,0.57387 -1.278184,3.48789 -0.940161,6.80899 0.237113,2.32965 0.802646,3.35825 1.556202,2.83044 z m 3.958595,2.99039 c -0.02832,-0.29104 -0.04088,-0.81492 -0.0279,-1.16417 0.01297,-0.34925 -0.01451,-3.51155 -0.06108,-7.02733 -0.04657,-3.51578 -0.08363,-6.96383 -0.08237,-7.66233 l 0.0023,-1.27 1.196327,-0.0234 1.196328,-0.0234 0.123178,0.36211 c 0.06775,0.19916 0.208849,0.64786 0.313558,0.99711 0.208536,0.69556 0.403653,1.33431 0.685365,2.24367 0.100981,0.32596 0.230234,0.74506 0.28723,0.93133 0.400192,1.30788 0.511236,1.65722 0.645912,2.032 0.08367,0.23283 0.171525,0.49953 0.195236,0.59267 0.02371,0.0931 0.03542,-1.48802 0.02602,-3.51367 l -0.01709,-3.683 1.136209,-0.0237 c 0.624916,-0.0131 1.163685,0.006 1.197268,0.0423 0.03358,0.0363 0.08618,2.37111 0.116885,5.18839 0.0307,2.81728 0.07309,6.23795 0.09419,7.60147 l 0.03836,2.47914 -0.825788,0.38414 c -0.454184,0.21127 -0.999728,0.40506 -1.212322,0.43063 l -0.386534,0.0465 -1.083376,-3.29077 c -0.595857,-1.80993 -1.097621,-3.32888 -1.115031,-3.37544 -0.01741,-0.0466 -0.01359,1.65236 0.0085,3.77539 l 0.04014,3.86007 -0.443572,0.13813 c -0.243964,0.076 -0.689095,0.21537 -0.989178,0.30977 -0.300084,0.0944 -0.649476,0.17164 -0.776428,0.17164 -0.221203,0 -0.232966,-0.022 -0.282316,-0.52917 z m -29.578118,-2.05107 c -0.912346,-0.28483 -1.969225,-1.28407 -2.616604,-2.47391 -0.397485,-0.73056 -0.916641,-2.2557 -1.103109,-3.24065 -0.06638,-0.35065 -0.149701,-1.11379 -0.185153,-1.69587 -0.05891,-0.96734 -0.06563,-0.87897 -0.07806,1.02784 l -0.01361,2.08618 -0.402167,0.19962 c -0.321803,0.15973 -0.538173,0.19966 -1.082793,0.19983 -0.626188,1.8e-4 -0.720692,-0.0235 -1.181514,-0.29614 -0.671962,-0.39754 -1.82732,-1.50981 -2.280205,-2.19516 -1.120623,-1.69585 -1.635049,-3.38598 -1.548081,-5.08617 0.05276,-1.03136 0.128267,-1.28353 0.60847,-2.032 0.407551,-0.63523 0.795537,-0.92939 1.568289,-1.18904 0.482844,-0.16224 0.658083,-0.17813 1.42895,-0.12957 1.001881,0.0631 1.293434,0.16057 1.685826,0.56352 0.496677,0.51004 1.028663,1.90947 1.03244,2.7159 l 0.0014,0.30981 -0.5715,0.0995 c -0.314325,0.0547 -0.812312,0.0868 -1.106639,0.0712 l -0.535136,-0.0283 -0.185185,-0.46567 c -0.143281,-0.36029 -0.255482,-0.50338 -0.495838,-0.63235 -0.443818,-0.23814 -0.717286,-0.12251 -0.995511,0.42094 -0.202319,0.39519 -0.215605,0.49513 -0.202547,1.52367 0.011,0.86627 0.05084,1.20514 0.187066,1.59085 0.376643,1.06646 1.194549,1.85727 1.771208,1.71254 0.171572,-0.0431 0.192962,-0.0934 0.170317,-0.40065 -0.02192,-0.29741 -0.05985,-0.3604 -0.246951,-0.41006 -0.121579,-0.0323 -0.397804,-0.16224 -0.613834,-0.28884 l -0.39278,-0.23019 v -1.13495 -1.13496 h 0.290164 c 0.159591,0 0.893016,0.19038 1.629834,0.42306 0.736818,0.23269 1.381635,0.42319 1.432927,0.42334 0.05627,1.7e-4 0.113512,-0.27675 0.14433,-0.69823 0.110034,-1.50487 0.685856,-2.9793 1.473048,-3.77182 0.612886,-0.61705 1.052525,-0.79719 1.969719,-0.80712 0.635134,-0.007 0.794167,0.0227 1.205784,0.22406 1.222724,0.59823 2.043906,2.33984 2.382694,5.05338 0.355721,2.84917 0.203869,6.02107 -0.375135,7.83588 -0.27848,0.87286 -0.688394,1.50837 -1.155198,1.79097 -0.371514,0.2249 -1.026981,0.25314 -1.614966,0.0696 z m 0.256872,-3.98631 c 0.279517,-0.32147 0.394737,-0.79829 0.503131,-2.08211 0.188229,-2.22939 -0.135206,-4.27593 -0.777226,-4.91795 -0.365108,-0.36511 -0.59425,-0.39965 -0.850719,-0.12823 -0.531701,0.56271 -0.727948,1.67209 -0.645132,3.64692 0.07943,1.89419 0.36546,2.8489 1.027715,3.43037 0.369118,0.32409 0.497132,0.33289 0.742231,0.051 z m 36.814364,0.74571 c -0.0088,-1.61819 -0.04621,-4.94241 -0.08322,-7.38716 -0.03701,-2.44475 -0.04395,-4.47046 -0.01542,-4.50158 0.02853,-0.0311 1.328218,-0.0692 2.888202,-0.0847 l 2.836333,-0.0281 0.02315,1.40489 0.02315,1.40488 -0.827487,0.13604 c -0.455119,0.0748 -1.151338,0.18029 -1.547154,0.23437 -0.395817,0.0541 -0.767292,0.11195 -0.8255,0.12859 -0.07515,0.0215 -0.105834,0.26423 -0.105834,0.83724 0,0.44385 0.02608,0.80699 0.05795,0.80699 0.05639,0 0.257635,-0.0496 1.687906,-0.41638 0.378135,-0.0969 0.845804,-0.17628 1.039264,-0.17628 h 0.351746 l -0.02326,1.36262 -0.02326,1.36263 -0.296334,0.11208 c -0.162983,0.0616 -0.715433,0.26373 -1.227666,0.44908 -0.512234,0.18535 -1.055159,0.38271 -1.2065,0.43858 l -0.275167,0.10157 v 1.05223 1.05222 l 0.232833,-0.1169 c 1.683742,-0.84541 2.733826,-1.32678 2.894308,-1.32678 0.194054,0 0.195939,-0.009 0.138808,-0.66394 l -0.05792,-0.66394 0.892716,-0.56373 c 0.490993,-0.31005 0.985654,-0.56372 1.099245,-0.56372 0.181362,0 0.219279,0.057 0.31116,0.46754 0.0852,0.38072 0.142484,0.47704 0.308494,0.5187 0.270036,0.0678 0.729424,-0.37109 0.925289,-0.88395 0.231395,-0.6059 0.15603,-0.65263 -1.052667,-0.65263 -0.997209,0 -1.02789,-0.006 -1.378057,-0.254 -0.499107,-0.35397 -0.758716,-0.89372 -0.863896,-1.7961 -0.122603,-1.05184 0.0111,-1.91805 0.421475,-2.7306 0.384684,-0.76168 0.752422,-1.05289 1.546875,-1.22497 0.434214,-0.0941 0.487808,-0.12079 0.254,-0.12676 -0.418756,-0.0107 -1.09766,-0.34936 -1.407346,-0.70207 -0.291865,-0.33242 -0.64087,-1.19424 -0.797147,-1.96845 l -0.102062,-0.50563 -0.145204,0.46329 c -0.372844,1.1896 -0.940782,1.98255 -1.695889,2.36777 -0.429704,0.21922 -1.637103,0.23678 -2.236546,0.0325 -0.987496,-0.33647 -1.893357,-1.98127 -2.232536,-4.05367 l -0.06928,-0.42334 -0.09967,0.84667 c -0.243514,2.06865 -0.879487,3.20749 -2.014938,3.60816 -0.40336,0.14234 -0.610857,0.1665 -1.052716,0.12255 -1.282092,-0.12751 -1.774206,-0.45706 -2.287031,-1.53154 -0.187796,-0.39347 -0.363879,-0.8397 -0.391294,-0.99162 -0.02741,-0.15192 -0.09994,-0.46672 -0.161175,-0.69955 -0.06123,-0.23283 -0.136445,-0.71861 -0.16714,-1.0795 -0.03069,-0.36089 -0.08574,-0.65617 -0.122315,-0.65617 -0.03658,0 -0.09279,0.23232 -0.124915,0.51627 -0.07809,0.69022 -0.396894,1.76732 -0.751143,2.53778 -0.356397,0.77514 -0.87532,1.37216 -1.442462,1.65955 -0.393031,0.19917 -0.497601,0.21474 -1.195777,0.17806 -1.225063,-0.0644 -1.781875,-0.45239 -2.448668,-1.70645 -0.879627,-1.65436 -1.401352,-5.05891 -1.28605,-8.39221 0.03222,-0.93133 0.02385,-1.07718 -0.03904,-0.68063 -0.149377,0.94196 -0.539279,2.0027 -0.861507,2.34376 -0.337709,0.35745 -0.340506,0.37799 -0.112665,0.82761 0.248679,0.49075 0.556318,1.45091 0.761787,2.3776 0.224359,1.01188 0.461753,2.10794 0.605146,2.794 0.073,0.34925 0.186615,0.87143 0.252483,1.1604 0.06587,0.28897 0.119761,0.64234 0.119761,0.78526 v 0.25986 l -1.375833,-0.0233 -1.375834,-0.0233 -0.113869,-0.508 c -0.06263,-0.2794 -0.163296,-0.71755 -0.223707,-0.97367 -0.233963,-0.9919 -0.464887,-2.01779 -0.600334,-2.667 -0.07772,-0.37253 -0.193764,-0.8737 -0.257869,-1.1137 -0.0641,-0.24 -0.116554,-0.50874 -0.116554,-0.59721 0,-0.1814 -0.408211,-1.04074 -0.494407,-1.04079 -0.03076,-2e-5 -0.04347,1.56208 -0.02824,3.47133 l 0.02769,3.47137 h -0.45918 c -0.252549,0 -0.80406,0.0245 -1.225581,0.0544 l -0.766402,0.0544 -0.04951,-0.71057 c -0.02723,-0.39081 -0.07093,-3.16801 -0.0971,-6.17156 -0.02618,-3.00355 -0.06599,-6.66777 -0.08848,-8.1427 -0.02883,-1.891 -0.01357,-2.69858 0.05175,-2.73895 0.05095,-0.0315 1.071195,-0.0623 2.267215,-0.0684 l 2.174581,-0.0112 0.43925,0.23003 c 0.49372,0.25857 0.772817,0.58529 1.030353,1.20618 0.366338,0.88319 0.517197,1.71783 0.580268,3.21037 0.05808,1.37452 0.06427,1.41305 0.124653,0.77654 0.151659,-1.59868 0.665825,-3.2589 1.285816,-4.15185 0.623334,-0.89777 1.56745,-1.19373 2.671038,-0.83731 0.89741,0.28983 1.770729,1.34385 2.303612,2.78025 0.685312,1.84727 0.839101,2.91195 0.897066,6.21041 l 0.04665,2.65442 1.110315,-0.0298 1.110316,-0.0298 0.08969,0.67733 c 0.123154,0.93009 0.335529,1.51725 0.642089,1.7752 0.320966,0.27008 0.526314,0.18265 0.755229,-0.32153 0.197123,-0.43415 0.202214,-0.65839 0.02833,-1.2478 -0.151675,-0.51413 -0.540412,-0.94486 -1.319384,-1.46191 -1.04094,-0.69094 -1.774908,-1.80202 -2.105278,-3.18699 -0.204846,-0.85874 -0.293332,-2.65714 -0.172977,-3.51563 0.175888,-1.25462 0.60148,-2.18775 1.166736,-2.55812 0.174341,-0.11423 0.397374,-0.15059 0.911848,-0.14867 0.579216,0.002 0.763628,0.0412 1.233249,0.2611 0.92246,0.43193 1.609185,1.34091 2.03958,2.69969 0.159046,0.50211 0.413895,2.04908 0.413895,2.5124 0,0.22527 -0.02104,0.23918 -0.359834,0.23778 -0.347744,-0.001 -1.836055,-0.21885 -1.893875,-0.27667 -0.01564,-0.0156 -0.06332,-0.27475 -0.105955,-0.5758 -0.13167,-0.92977 -0.451011,-1.51671 -0.825195,-1.51671 -0.156852,0 -0.213603,0.068 -0.288382,0.34575 -0.173565,0.64457 0.0162,1.01862 0.848574,1.67263 1.468968,1.1542 1.938201,1.71751 2.419718,2.90484 l 0.286767,0.70711 0.0021,-0.762 c 0.0045,-1.61577 0.399175,-3.80828 0.807864,-4.48733 0.465303,-0.77313 0.786912,-0.97367 1.561459,-0.97367 1.462519,0 2.995356,1.60254 3.76576,3.937 0.407884,1.23595 0.554333,2.28833 0.554333,3.98342 v 1.53776 l 0.529166,0.0502 c 0.291042,0.0276 0.721121,0.0917 0.95573,0.14241 l 0.426565,0.0922 0.151999,0.59005 c 0.236512,0.91812 0.800562,1.37178 1.112897,0.89509 0.223357,-0.34088 -0.02925,-0.71242 -0.984575,-1.44817 -0.454182,-0.34979 -0.957246,-0.7979 -1.11792,-0.99581 -0.67266,-0.82853 -1.029284,-1.92781 -1.023144,-3.15383 0.0043,-0.85084 0.13609,-1.31678 0.46586,-1.64655 0.225186,-0.22519 0.31808,-0.25845 0.721805,-0.25845 0.687595,0 1.262731,0.34422 2.176279,1.3025 0.917547,0.96247 1.665338,2.46978 1.665338,3.35679 0,0.30746 -0.01917,0.33605 -0.225395,0.33605 -0.123967,0 -0.399612,-0.1021 -0.612545,-0.22689 l -0.38715,-0.22688 0.404175,0.45971 c 0.222298,0.25285 0.536043,0.72202 0.697213,1.0426 0.271096,0.53924 0.293035,0.64147 0.293035,1.36549 0,0.81682 -0.09322,1.16881 -0.419302,1.58331 -0.291685,0.37077 -0.672291,0.59631 -1.179946,0.69923 l -0.475085,0.0963 0.408178,0.10395 c 0.431126,0.1098 0.936143,0.39346 1.17327,0.65901 0.204496,0.229 0.470998,0.88672 0.536627,1.32436 l 0.05646,0.37652 -0.343048,0.13726 c -0.663479,0.26547 -1.362605,0.48001 -1.564235,0.48001 -0.155016,0 -0.215,-0.0562 -0.25077,-0.23508 -0.0586,-0.29299 -0.368164,-0.69626 -0.534477,-0.69626 -0.175009,0 -0.540602,0.385 -0.539044,0.56765 0.003,0.34608 0.128121,0.39556 1.243702,0.4916 1.192942,0.1027 1.624906,0.25129 1.924538,0.66204 0.252699,0.3464 0.240305,1.63803 -0.02366,2.46591 -0.406628,1.27531 -1.263566,2.54183 -2.342978,3.46284 -0.803214,0.68534 -1.079669,0.81734 -1.704691,0.81394 -0.601934,-0.003 -0.723248,-0.0874 -1.049621,-0.72814 l -0.25309,-0.49684 0.02275,1.30223 c 0.02143,1.22676 0.01294,1.30772 -0.146581,1.397 -0.09313,0.0521 -0.188384,0.11869 -0.211667,0.14793 -0.05524,0.0694 -1.595736,1.06123 -2.227721,1.43434 -1.673914,0.98826 -2.721761,1.51817 -3.002028,1.51817 h -0.253219 z m 3.354546,-16.15865 c 0.357145,-0.64096 0.475779,-2.58357 0.239912,-3.92851 -0.20621,-1.17584 -0.826358,-2.19148 -1.283241,-2.10162 -0.439045,0.0863 -0.704048,1.11643 -0.704036,2.73662 1.5e-5,1.95708 0.348292,3.31784 0.94151,3.6786 0.340733,0.20721 0.524849,0.11923 0.805855,-0.38509 z m -13.460097,-0.75345 c 0.09967,-0.0698 0.264255,-0.26128 0.365734,-0.42547 0.358206,-0.57959 0.437016,-1.08269 0.483776,-3.08826 0.06363,-2.72901 -0.148329,-4.16642 -0.733473,-4.97418 -0.893994,-1.23413 -1.613245,0.36105 -1.61292,3.57718 1.7e-4,1.34215 0.158931,3.07245 0.341884,3.72533 0.125452,0.44769 0.460194,1.01844 0.692902,1.18143 0.229568,0.1608 0.238088,0.16087 0.462097,0.004 z m 18.915111,-1.88809 c -0.194184,-0.38063 -0.703679,-0.85292 -0.754769,-0.69965 -0.06169,0.18508 0.172743,0.59574 0.518326,0.90796 0.394476,0.35638 0.4842,0.27733 0.236443,-0.20831 z m -25.766719,-4.99419 c 0.193482,-0.18074 0.267146,-0.34224 0.315083,-0.69079 0.191552,-1.39274 -0.13922,-2.14767 -0.94571,-2.15842 -0.366968,-0.005 -0.398275,0.0119 -0.463722,0.24876 -0.0386,0.1397 -0.04554,0.83502 -0.01541,1.54517 l 0.05478,1.29116 h 0.401232 c 0.322098,0 0.451035,-0.0465 0.653749,-0.23588 z m -30.389052,8.73198 -0.03285,-3.45738 0.806145,-0.77177 c 1.892624,-1.8119 2.487936,-2.23284 3.159687,-2.23415 0.524118,-0.001 0.750717,0.23067 0.951678,0.97307 0.121,0.44702 0.138759,0.76039 0.09938,1.7537 -0.06279,1.58384 -0.298387,2.36607 -0.928913,3.0842 -0.257425,0.29319 -1.14025,0.78847 -1.417353,0.79517 -0.06985,0.002 -0.219894,0.0545 -0.333432,0.1174 -0.205846,0.11402 -0.206448,0.11843 -0.212548,1.55716 -0.0034,0.79355 -0.02477,1.46015 -0.04757,1.48133 -0.0228,0.0212 -0.484685,0.0655 -1.026414,0.0986 l -0.984963,0.0601 z m 2.424949,-2.07565 c 0.280063,-0.22029 0.466825,-0.63492 0.466825,-1.0364 0,-0.40096 -0.119884,-0.44394 -0.512887,-0.18386 l -0.33378,0.22088 v 0.59147 c 0,0.3253 0.03296,0.59146 0.07325,0.59146 0.04029,0 0.178254,-0.0826 0.306592,-0.18355 z m 2.816116,5.12666 c -0.02492,-0.0411 -0.04886,-1.27492 -0.05321,-2.74177 -0.0043,-1.46685 -0.03312,-3.87626 -0.06393,-5.35423 l -0.05603,-2.68723 0.240482,-0.19144 c 0.319203,-0.2541 0.773265,-0.56006 1.694683,-1.14191 1.449035,-0.91503 2.942048,-1.71653 3.197504,-1.71653 0.202067,0 0.204182,0.009 0.264056,1.13895 0.0332,0.62642 0.03357,1.3533 8.47e-4,1.6153 -0.06261,0.50112 -0.03043,0.46669 -0.673347,0.7203 -0.09313,0.0367 -0.683684,0.31134 -1.312334,0.61023 l -1.143,0.54343 0.02755,0.64044 0.02755,0.64044 0.522785,-0.20778 c 1.299161,-0.51634 1.872214,-0.70597 2.133347,-0.70597 0.177155,0 0.189111,0.0442 0.234867,0.86783 0.02651,0.47731 0.02219,1.17188 -0.0096,1.54349 l -0.05782,0.67566 -0.423333,0.0975 c -0.368875,0.085 -0.957015,0.245 -2.077177,0.56518 l -0.299176,0.0855 -0.0096,0.90243 -0.0096,0.90244 0.393466,-0.0589 c 0.216406,-0.0324 0.793516,-0.12494 1.282466,-0.20562 0.48895,-0.0807 1.0414,-0.1516 1.227667,-0.15761 l 0.338667,-0.0109 0.02296,1.67413 c 0.01778,1.29595 -0.0014,1.68186 -0.08467,1.70835 -0.0592,0.0188 -0.96488,0.0763 -2.01263,0.12785 -1.04775,0.0515 -2.21394,0.11649 -2.591533,0.14443 -0.377593,0.0279 -0.706923,0.0171 -0.731843,-0.024 z m 5.674117,-0.33794 c -0.02461,-0.0415 -0.06895,-2.79965 -0.09854,-6.12917 -0.02958,-3.32951 -0.07673,-6.42008 -0.104772,-6.86792 -0.04004,-0.63949 -0.0261,-0.8301 0.06496,-0.8881 0.331516,-0.21116 1.898547,-0.87998 2.061765,-0.87998 0.180738,0 0.191352,0.0402 0.240622,0.91017 0.02835,0.50059 0.05518,2.14842 0.05962,3.66183 0.0099,3.37231 0.06005,6.10201 0.113082,6.15504 0.02178,0.0218 0.414276,-0.0176 0.872223,-0.0876 0.457946,-0.0699 1.122522,-0.15203 1.476833,-0.18242 l 0.644204,-0.0552 0.0527,0.87393 c 0.02898,0.48067 0.05316,1.43012 0.05372,2.1099 l 0.001,1.23596 -1.544593,0.0561 c -0.849525,0.0308 -2.062882,0.0801 -2.696348,0.10953 -0.649016,0.0301 -1.171288,0.0205 -1.196503,-0.0221 z m 10.899593,-0.23447 c -1.231471,-0.58078 -1.961556,-2.139 -2.464354,-5.2597 -0.11949,-0.74162 -0.148659,-1.41422 -0.143202,-3.302 0.0087,-3.00792 0.163466,-4.30966 0.714727,-6.01133 0.524752,-1.61984 1.100153,-2.44665 2.04335,-2.93615 0.442151,-0.22947 1.726073,-0.31622 2.300366,-0.15543 0.822257,0.23022 1.444019,1.375 1.832991,3.37488 0.09371,0.48179 0.158767,1.00965 0.144582,1.17302 -0.02324,0.26763 -0.0761,0.32392 -0.533793,0.56846 -0.2794,0.14927 -0.725016,0.39294 -0.990257,0.54148 -0.710445,0.39786 -0.77698,0.37685 -0.954607,-0.30143 -0.154552,-0.59017 -0.471436,-1.15716 -0.694576,-1.24278 -0.237732,-0.0912 -0.594959,0.22029 -0.857471,0.74776 -0.41515,0.83417 -0.548983,1.76982 -0.540084,3.77586 0.01195,2.69302 0.251219,4.05429 0.831866,4.73264 0.163528,0.19105 0.36103,0.34721 0.438893,0.34704 0.250337,-5.9e-4 0.677641,-0.32109 0.983048,-0.73739 0.256266,-0.34933 0.297613,-0.47156 0.299423,-0.8852 0.0033,-0.75918 0.0036,-0.75891 -0.769415,-0.69444 l -0.66782,0.0557 -9.31e-4,-1.642 c -5.08e-4,-0.90311 -0.02364,-1.77931 -0.0514,-1.94711 -0.04832,-0.29214 -0.03839,-0.30757 0.233766,-0.36317 0.156328,-0.0319 0.798583,-0.0939 1.427233,-0.13767 0.62865,-0.0438 1.321162,-0.10262 1.538916,-0.13075 l 0.395917,-0.0511 0.04687,0.36692 c 0.02578,0.20181 0.06249,1.95258 0.08159,3.89062 l 0.03472,3.5237 -0.350503,0.58471 c -0.48478,0.80872 -1.110916,1.58613 -1.479894,1.83743 -0.739689,0.50379 -2.091101,0.63537 -2.849942,0.27749 z m -5.328093,0.0394 c -0.01622,-0.0274 -0.0536,-2.50725 -0.08308,-5.5108 -0.02948,-3.00355 -0.07409,-6.56992 -0.09915,-7.92527 l -0.04556,-2.46427 0.491944,-0.17148 c 0.835663,-0.29129 1.426516,-0.44565 1.705885,-0.44565 h 0.267726 l 0.0091,1.3335 c 0.005,0.73342 0.02183,1.905 0.03742,2.6035 0.01559,0.6985 0.05042,3.5941 0.07739,6.43467 0.02697,2.84056 0.07004,5.36483 0.09571,5.60947 0.03428,0.32673 0.01695,0.45437 -0.0653,0.48086 -0.183384,0.0591 -2.360049,0.10953 -2.392057,0.0555 z"
       id="path5254" /></g></svg>
