<?xml version="1.0" encoding="UTF-8" standalone="no"?>
<!-- Created with Inkscape (http://www.inkscape.org/) -->

<svg
   width="449.86435mm"
   height="236.00594mm"
   viewBox="0 0 449.86435 236.00594"
   version="1.1"
   id="svg5"
   xml:space="preserve"
   xmlns="http://www.w3.org/2000/svg"
   xmlns:svg="http://www.w3.org/2000/svg"><defs
     id="defs2" /><path
     style="fill:#000000;stroke-width:1.43881"
     d="m 366.84165,230.7064 c -4.81074,-3.13016 -9.6667,-5.82168 -10.79107,-5.98114 -1.12431,-0.15949 -3.17728,-0.21334 -4.56213,-0.11962 -1.38485,0.0937 -2.51792,1.18529 -2.51792,2.42565 0,1.56735 0.84068,1.98834 2.75653,1.38027 1.51609,-0.48121 3.13684,-0.25954 3.60168,0.4926 0.46485,0.75213 0.45004,2.3971 -0.0329,3.65553 -0.48291,1.25843 -2.14625,2.28806 -3.69629,2.28806 -1.55003,0 -4.07062,-0.67024 -5.60129,-1.48943 -1.91579,-1.02523 -2.78306,-3.01748 -2.78306,-6.39298 0,-3.43621 0.95693,-5.5739 3.19776,-7.14343 1.75877,-1.23186 5.43069,-2.23977 8.15985,-2.23977 2.72914,0 6.09915,-1.02903 7.48889,-2.28676 l 2.52685,-2.28674 4.06109,2.21425 c 2.23359,1.21783 6.09332,3.30362 8.57714,4.63511 3.19214,1.71116 6.05423,2.1323 9.76286,1.43656 l 5.24682,-0.98432 0.97246,-4.60136 c 0.53483,-2.53075 0.90329,-4.92512 0.81878,-5.32078 -0.0844,-0.39567 -0.53159,-3.51122 -0.99351,-6.92344 -0.46192,-3.41221 -1.21525,-6.81137 -1.67403,-7.55372 -0.45879,-0.74234 -1.72089,-1.34972 -2.80469,-1.34972 -1.08379,0 -2.98796,1.01744 -4.2315,2.261 -1.24354,1.24352 -2.261,3.83339 -2.261,5.75521 0,1.92183 -0.66307,3.49424 -1.47348,3.49424 -0.81044,0 -4.68397,-2.20842 -8.60789,-4.90759 -3.92393,-2.69921 -7.95498,-5.18375 -8.95787,-5.52126 l -1.82344,-0.61364 1.85676,-2.2501 c 1.37502,-1.66629 1.7473,-7.70009 1.43483,-23.2549 -0.26741,-13.3124 0.10641,-21.04508 1.02085,-21.11483 0.79353,-0.0606 2.65534,-0.33866 4.13734,-0.61804 1.48202,-0.27937 4.55747,-1.27956 6.83434,-2.22269 2.27687,-0.9431 4.13978,-2.57521 4.13978,-3.6269 0,-1.05166 1.07325,-2.51279 2.38504,-3.2469 1.7378,-0.97251 4.15704,-0.21101 8.91455,2.80611 3.59119,2.27749 7.65941,4.14089 9.04045,4.14089 1.38105,0 2.9287,0.6758 3.43919,1.50182 0.51052,0.826 0.11781,2.47826 -0.87262,3.67167 -1.17519,1.41603 -1.84302,7.51732 -1.92238,17.56234 l -0.12168,15.39253 3.23732,4.53852 3.23732,4.53855 -0.051,9.13011 c -0.028,5.02159 -0.83734,10.53255 -1.79849,12.2466 -0.96115,1.71406 -3.36618,4.38323 -5.34455,5.93145 -1.97835,1.54825 -6.99684,4.02096 -11.15217,5.49491 l -7.55517,2.67991 0.36112,3.61849 0.36115,3.61848 -3.59702,0.41517 c -2.27374,0.26243 -6.81479,-1.67851 -12.34382,-5.27603 z m 22.71354,-74.39608 c 0.60072,-0.92187 -1.03991,-2.54251 -4.00553,-3.95673 -2.76266,-1.3174 -5.69996,-2.39532 -6.52733,-2.39532 -0.88816,0 -1.15577,1.62064 -0.65335,3.95673 0.46805,2.1762 0.96397,9.57204 1.1021,16.4352 0.16207,8.04933 -0.37195,13.22919 -1.50419,14.59346 l -1.75525,2.11498 5.44362,1.29237 5.44364,1.29237 0.7194,-15.88583 c 0.39567,-8.73722 1.17729,-16.58846 1.73689,-17.44723 z M 8.6927672,229.17125 c -1.58268,-0.64777 -3.92371,-2.38725 -5.20228,-3.86552 -1.27857,-1.47826 -2.75352001,-4.49152 -3.27771001,-6.69613 -0.53038,-2.23079 -0.0362,-7.0959 1.11445001,-10.97034 1.1371,-3.82906 3.74512,-10.1134 5.7956,-13.96521 2.05048,-3.85182 3.7281598,-7.9337 3.7281598,-9.07083 0,-1.1371 -0.76213,-4.17509 -1.6935998,-6.75105 -1.32476,-3.66356 -1.30097,-5.15662 0.10926,-6.85586 l 1.8028598,-2.17227 3.38883,1.54405 c 2.49182,1.13534 3.82934,3.49432 5.05302,8.91191 0.91533,4.05231 2.63593,9.52915 3.8236,12.17072 1.41755,3.15291 3.95144,5.55163 7.3758,6.98244 3.04609,1.27274 7.4405,1.88123 10.56201,1.46255 2.94007,-0.39435 6.79362,-2.06602 8.56341,-3.71486 2.34808,-2.18754 3.39518,-5.13641 3.87396,-10.90988 l 0.65612,-7.91205 -5.06749,-5.06747 c -3.61787,-3.61789 -6.3434,-5.0675 -9.52778,-5.0675 -2.45316,0 -4.4603,0.73272 -4.4603,1.62826 0,1.06722 -1.96949,1.36408 -5.7158,0.86159 -3.14368,-0.42166 -6.75098,-1.80182 -8.01622,-3.06706 -1.26521,-1.26521 -2.82278,-2.30041 -3.46122,-2.30041 -0.63844,0 -3.50578,-3.40478 -6.37185,-7.56617 l -5.2110398,-7.5662 0.0316,-7.18157 c 0.0181,-3.94986 1.22016,-9.79823 2.67287,-12.99632 1.4526898,-3.19812 4.8376598,-7.66661 7.5221398,-9.92999 2.68447,-2.26338 6.96431,-4.9883 9.51076,-6.05539 2.54645,-1.0671 8.24879,-1.94019 12.67183,-1.94019 4.42305,0 11.02318,0.75068 14.66691,1.6682 l 6.62502,1.66821 2.5159,-3.10701 c 1.38373,-1.70886 3.8689,-3.10702 5.52258,-3.10702 2.35011,0 3.00668,0.90023 3.00668,4.1224 0,2.2673 -1.20587,5.66649 -2.67968,7.55373 -1.47384,1.88724 -3.22471,5.05002 -3.89083,7.02837 -0.66613,1.97835 -1.2408,5.86312 -1.27702,8.63283 l -0.066,5.03583 h -3.50558 -3.50555 l -1.24551,-5.03583 c -0.68502,-2.76971 -2.15881,-7.02514 -3.27507,-9.45653 -1.11626,-2.43139 -3.70286,-5.1831 -5.74798,-6.11491 -2.04515,-0.93184 -6.01803,-1.69422 -8.8287,-1.69422 -3.8615,0 -6.13029,1.09195 -9.28453,4.46856 -2.95547,3.16384 -4.17428,5.93471 -4.17428,9.48984 0,2.76168 1.28571,6.82689 2.85716,9.03378 1.74412,2.44938 4.57135,4.2641 7.25738,4.65834 2.42012,0.3552 4.73366,0.10641 5.14118,-0.55311 0.40755,-0.65939 2.76447,-1.1989 5.23762,-1.1989 2.47316,0 7.28917,1.35184 10.70229,3.0041 3.4131,1.65225 8.48287,5.66454 11.26614,8.91615 2.78328,3.25164 5.70587,8.3087 6.49461,11.23792 0.99022,3.67736 0.92925,7.70919 -0.19703,13.02566 -0.89707,4.23487 -3.22935,10.447 -5.18282,13.80472 -2.50543,4.30648 -5.69649,7.18218 -10.83223,9.76172 l -7.28052,3.65678 -12.3722,-0.18927 c -6.80473,-0.10408 -14.94317,-0.18253 -18.08544,-0.17424 -4.13623,0.0104 -6.41981,0.88767 -8.27313,3.17645 -1.4079698,1.73875 -2.5599398,4.30529 -2.5599398,5.70343 0,1.39811 0.91532,3.30168 2.0340398,4.23013 l 2.03404,1.68811 2.87081,-3.08145 c 1.57893,-1.69482 4.0628,-2.85416 5.51968,-2.57636 1.45691,0.27784 2.85398,1.94151 3.10466,3.6971 0.27758,1.94414 -0.96242,4.61013 -3.17192,6.81963 -1.99523,1.99521 -4.79015,3.58664 -6.21099,3.53647 -1.42082,-0.0502 -3.87823,-0.6212 -5.4609098,-1.26899 z M 87.155327,210.28049 c -4.32622,-2.38123 -8.27067,-4.98454 -8.76547,-5.78514 -0.49477,-0.80059 -0.42241,-4.49634 0.16078,-8.21274 0.58325,-3.71644 1.21209,-9.99446 1.39741,-13.95119 0.18538,-3.95672 0.25347,-10.59321 0.15121,-14.74776 l -0.18564,-7.55373 h -3.51083 -3.51081 l 0.34192,-3.95672 0.34194,-3.95673 3.16889,0.34275 3.16889,0.34274 v -4.3709 c 0,-2.40402 -0.99385,-6.29278 -2.20855,-8.64174 l -2.20852,-4.2708 2.21963,-0.85176 c 1.22081,-0.46847 3.71853,0.13023 5.55049,1.33071 l 3.33087,2.18245 2.57179,-4.77552 c 1.41447,-2.62653 3.95341,-5.13681 5.64204,-5.57841 1.7647,-0.46148 3.97728,0.10409 5.203273,1.3301 l 2.133,2.13299 -3.922993,3.6376 -3.92297,3.63759 v 7.28974 7.28974 l 2.27589,-0.87333 c 1.25172,-0.48035 3.09018,-0.87335 4.085463,-0.87335 0.99527,0 2.54709,-1.61865 3.44848,-3.597 0.90142,-1.97837 2.62399,-3.59702 3.82797,-3.59702 1.33722,0 2.18908,1.31295 2.18908,3.374 0,1.85573 -1.20204,4.46186 -2.67119,5.7914 -1.73159,1.56708 -2.43173,3.66994 -1.99047,5.97824 0.48856,2.55582 0.0482,3.56083 -1.56034,3.56083 -1.23256,0 -2.64118,-0.64746 -3.13026,-1.43879 -0.48908,-0.79135 -2.149233,-1.43881 -3.689253,-1.43881 h -2.80002 l 0.31129,16.19184 c 0.17113,8.90553 -0.21412,17.04191 -0.85617,18.0808 -0.64209,1.03895 -0.83234,2.22406 -0.42279,2.63363 0.40956,0.40954 3.38798,1.09917 6.61872,1.53253 3.230723,0.43331 5.874053,1.57344 5.874053,2.53363 0,0.96017 -1.31546,2.93626 -2.92329,4.39128 -1.6078,1.45504 -2.74084,3.98339 -2.51789,5.61853 0.2826,2.07277 -0.465983,3.06761 -2.472273,3.28543 -1.58268,0.17191 -6.41724,-1.63587 -10.74345,-4.01711 z m 33.027183,-1.06748 c -5.92531,-2.90198 -11.0274,-5.42776 -11.33801,-5.61283 -0.31061,-0.18512 0.33686,-1.42382 1.43881,-2.75272 1.50309,-1.8127 1.95207,-6.89773 1.79745,-20.35791 -0.13541,-11.80116 -0.7744,-18.29294 -1.86661,-18.96796 -1.22671,-0.75817 -1.17288,-1.4262 0.20609,-2.55709 1.02663,-0.84195 4.64675,-2.27421 8.0447,-3.18277 4.29372,-1.14811 6.57061,-2.68437 7.46499,-5.03676 0.70778,-1.86161 1.84858,-3.73192 2.53508,-4.15619 0.6865,-0.42428 2.57889,-0.002 4.2053,0.93932 1.62645,0.94093 6.31899,3.51974 10.42793,5.73069 5.77372,3.10678 7.2837,4.60938 6.64723,6.61474 -0.45296,1.42715 -0.89029,9.70435 -0.97182,18.39377 -0.0815,8.68943 0.29909,17.20847 0.84588,18.93117 0.736,2.31902 0.31466,3.34246 -1.62302,3.94205 -1.4394,0.44542 -5.42994,2.08217 -8.86784,3.6372 -4.13128,1.8687 -5.98973,3.50747 -5.48103,4.83311 0.42332,1.10316 -0.0104,2.6521 -0.96109,3.44214 -1.20499,1.00004 -5.00342,-0.16648 -12.50404,-3.83996 z m 15.31571,-13.68564 c -0.46246,-1.84266 -0.91946,-10.14152 -1.01554,-18.44196 l -0.17477,-15.09163 -4.19712,-1.58423 -4.19709,-1.58422 0.28091,14.63067 c 0.15457,8.04684 -0.20013,16.68459 -0.7883,19.19494 l -1.06919,4.56428 3.32706,0.63531 c 1.82989,0.3494 4.53034,0.72347 6.00097,0.83123 l 2.67388,0.19599 z m 51.93295,13.86962 c -4.08183,-3.31005 -6.17156,-5.95718 -5.42538,-6.87242 0.66752,-0.81878 1.44041,-10.11985 1.71752,-20.6691 l 0.50387,-19.18047 -3.59703,-1.99096 c -1.97835,-1.09503 -4.24447,-2.0139 -5.03583,-2.04194 -0.89065,-0.0316 -1.43878,7.34885 -1.43878,19.3729 v 19.42389 h 2.51789 c 1.38485,0 2.51791,0.87084 2.51791,1.93522 0,1.06437 -1.29493,3.10709 -2.87761,4.53942 -1.58269,1.43231 -2.8776,4.12251 -2.8776,5.97821 0,2.32034 -0.82902,3.37403 -2.65462,3.37403 -1.46004,0 -3.77383,-1.23671 -5.14172,-2.74822 -1.3679,-1.51151 -4.05809,-3.14251 -5.97824,-3.62444 -1.92009,-0.48191 -3.4911,-1.43731 -3.4911,-2.12313 0,-0.68582 0.96721,-3.10145 2.14933,-5.36812 1.51169,-2.89856 2.152,-8.66356 2.15822,-19.43236 l 0.008,-15.31121 -3.59702,-0.90279 c -1.97835,-0.49653 -3.597,-1.5127 -3.597,-2.25815 0,-0.74542 1.23334,-2.51362 2.74081,-3.92928 1.50742,-1.41569 2.9649,-4.19261 3.23877,-6.17099 l 0.49796,-3.597 3.97118,0.27305 c 2.18413,0.15017 5.74451,1.51464 7.91195,3.03216 2.16745,1.51749 4.75015,2.47372 5.73933,2.12494 0.98919,-0.34877 1.79852,-1.87512 1.79852,-3.39183 0,-1.51677 0.80932,-2.75531 1.79851,-2.75236 0.98916,0.003 3.79483,1.22275 6.23481,2.71062 2.43996,1.48787 6.54527,3.16845 9.12294,3.73461 l 4.68667,1.02937 -1.05031,3.09432 c -0.57771,1.70191 -1.34392,9.7711 -1.70277,17.93155 -0.35885,8.16045 -0.27571,16.33822 0.18486,18.17285 0.46047,1.83463 2.30108,3.74996 4.09024,4.25631 l 3.25307,0.92062 -4.24854,3.49478 c -2.74762,2.26012 -4.27252,4.87606 -4.31641,7.40472 -0.0373,2.15047 -0.76678,4.14286 -1.62097,4.42748 -0.85422,0.28461 -4.54067,-1.90521 -8.19217,-4.86628 z m 38.45415,1.98905 c -2.41103,-0.9445 -7.75259,-3.00231 -11.87017,-4.57293 -4.11756,-1.57057 -7.48649,-3.63664 -7.48649,-4.59118 0,-0.9546 0.64748,-2.13574 1.43881,-2.62482 0.83387,-0.51536 1.43881,-8.3797 1.43881,-18.7045 0,-10.3248 -0.60494,-18.18913 -1.43881,-18.70449 -0.79133,-0.48908 -1.43881,-1.8222 -1.43881,-2.96251 0,-1.14032 0.94857,-2.07329 2.10794,-2.07329 1.15937,0 5.20601,-1.0134 8.99256,-2.25197 3.78651,-1.23859 8.31035,-3.82843 10.05289,-5.75523 1.74259,-1.92678 3.83796,-3.50325 4.65643,-3.50325 0.81843,0 3.79301,4.66383 6.61015,10.36405 2.81714,5.70027 5.81888,11.20369 6.67053,12.22988 1.11908,1.34839 1.03269,2.48723 -0.31152,4.10691 -1.023,1.23262 -4.82518,3.92636 -8.44931,5.98603 -3.62416,2.0597 -8.0195,5.20273 -9.76747,6.98449 -1.74795,1.78176 -3.57549,4.82285 -4.06117,6.75799 l -0.88309,3.51844 5.5,0.9088 c 3.02499,0.49982 6.71401,0.91589 8.19776,0.92459 l 2.69776,0.0155 -0.83724,-4.18628 c -0.60175,-3.00878 -0.21127,-4.42651 1.38879,-5.04046 1.22433,-0.46982 2.81509,-0.49019 3.53501,-0.0451 0.71993,0.44493 1.30897,2.71129 1.30897,5.03635 0,2.81033 -1.68801,6.09578 -5.03583,9.80141 -2.76971,3.06572 -5.03581,6.62862 -5.03581,7.91757 0,1.28895 -0.80932,2.30699 -1.79851,2.26232 -0.98919,-0.0445 -3.77116,-0.85401 -6.18218,-1.79851 z m 2.68196,-34.72529 2.6147,-1.98216 -1.68047,-5.60893 c -0.92426,-3.0849 -2.96534,-7.19018 -4.53573,-9.12284 l -2.85522,-3.51391 0.82227,3.59702 c 0.45221,1.97835 0.8311,6.99619 0.84189,11.15075 0.0104,4.15456 0.50524,7.53314 1.09874,7.50797 0.59352,-0.0259 2.25571,-0.93771 3.69382,-2.0279 z m 28.83996,34.4468 c -0.45553,-1.18702 -0.48028,-3.06486 -0.0551,-4.17301 0.42523,-1.10814 4.39309,-4.41756 8.81743,-7.35429 4.42437,-2.93672 8.97428,-6.66722 10.11089,-8.28998 1.13663,-1.62276 3.80508,-7.71707 5.92987,-13.54291 2.12481,-5.82581 3.49594,-10.95972 3.04699,-11.40867 -0.44894,-0.44895 -2.06174,-0.42098 -3.58397,0.0621 -1.52223,0.48313 -3.49954,2.48462 -4.394,4.44777 -0.96257,2.11262 -2.83176,3.56937 -4.57994,3.56937 -1.62447,0 -3.33074,-0.98281 -3.7917,-2.18405 -0.46096,-1.20123 -0.0577,-4.06821 0.89622,-6.3711 1.14676,-2.76849 3.64942,-4.95329 7.38701,-6.44878 3.10898,-1.24398 6.9117,-2.26175 8.45055,-2.26175 1.53883,0 3.41085,-1.14536 4.16005,-2.54523 0.74918,-1.39989 2.64644,-6.41773 4.21613,-11.15074 1.56966,-4.73304 3.2847,-10.65375 3.81121,-13.15709 l 0.95729,-4.55156 -2.60488,-0.71832 c -1.43267,-0.3951 -5.02498,-1.12646 -7.98291,-1.6253 -3.19859,-0.53941 -5.9887,-2.048 -6.88494,-3.72265 -1.05474,-1.97094 -1.0448,-3.67902 0.0331,-5.6933 0.84705,-1.58269 2.59937,-2.87762 3.89405,-2.87762 1.2947,0 3.55054,1.08286 5.01299,2.40635 l 2.659,2.40635 20.07293,-0.1046 20.07295,-0.1046 4.71867,-2.78205 c 2.5953,-1.53013 5.85176,-2.51849 7.23661,-2.19635 1.38485,0.32211 2.51792,1.45641 2.51792,2.52068 0,1.06428 -0.40359,2.98678 -0.89686,4.27221 -0.49328,1.28546 -3.32701,3.57696 -6.29719,5.09222 -2.97015,1.51527 -5.77458,3.73036 -6.23202,4.92241 -0.45741,1.19206 0.18823,5.91374 1.43464,10.49265 1.2465,4.57888 2.59898,9.94391 3.00555,11.92226 0.40656,1.97838 1.31013,4.32332 2.00797,5.21101 0.69781,0.8877 3.61735,1.99513 6.48787,2.46096 2.8705,0.4658 6.74489,2.28037 8.60979,4.03232 1.86489,1.75196 3.39069,4.7115 3.39069,6.57676 0,1.86526 -0.96946,3.7634 -2.15433,4.21807 -1.25032,0.47978 -4.33255,-1.08582 -7.34512,-3.73088 -2.85493,-2.50665 -5.49099,-4.2574 -5.85789,-3.8905 -0.3669,0.36693 0.97572,5.39101 2.98362,11.16468 2.00786,5.77364 3.40121,10.74705 3.09629,11.05197 -0.30492,0.30492 0.43132,1.72687 1.63607,3.15991 1.20478,1.43306 4.01462,4.61642 6.24406,7.07414 2.22946,2.45772 5.3983,4.46861 7.04186,4.46861 2.01949,0 2.98827,0.924 2.98827,2.8502 0,1.83924 -1.27411,3.16998 -3.59215,3.75177 -1.97569,0.49587 -11.27137,0.0981 -20.65706,-0.8836 l -17.0649,-1.78518 -5.41244,3.67786 c -2.97683,2.02283 -6.25664,3.3539 -7.28842,2.95798 -1.03177,-0.39595 -2.28497,-1.7857 -2.78485,-3.08835 -0.64054,-1.66926 1.50359,-4.59589 7.26289,-9.91344 l 8.17174,-7.54494 -0.87985,-3.28429 c -0.48393,-1.80635 -0.89862,-5.87415 -0.92153,-9.03952 -0.0233,-3.16537 -0.63969,-6.70067 -1.37062,-7.85623 l -1.32892,-2.10097 -3.16403,2.82037 c -1.74023,1.55123 -4.05456,4.92466 -5.14299,7.49653 -1.0884,2.57187 -2.89121,4.67613 -4.00626,4.67613 -1.11501,0 -2.77185,-2.256 -3.68184,-5.01333 -0.91001,-2.75733 -3.33811,-6.3376 -5.39579,-7.95617 -2.80101,-2.20327 -4.01656,-2.49739 -4.83673,-1.1703 -0.60254,0.9749 -0.75876,2.31742 -0.34717,2.98338 0.41158,0.66594 0.12142,1.99179 -0.64476,2.94631 -0.76622,0.9545 -1.46742,5.50469 -1.55822,10.11151 -0.0909,4.60682 0.49529,9.61001 1.30244,11.1182 0.80717,1.50823 3.55588,3.28333 6.10828,3.94474 2.55241,0.66138 4.85066,2.29279 5.10729,3.62534 0.30145,1.56524 -0.9672,2.96796 -3.58415,3.96292 -2.92396,1.1117 -7.26553,1.06181 -15.60773,-0.17917 l -11.55695,-1.71941 -6.71954,3.0611 c -3.69575,1.68361 -7.42282,3.06111 -8.28243,3.06111 -0.8596,0 -1.93557,-0.97119 -2.39107,-2.15821 z m 56.63932,-45.32241 c 2.01206,-1.58268 4.58582,-2.87761 5.71943,-2.87761 1.48595,0 1.77132,-0.90336 1.02264,-3.2373 -0.57118,-1.78054 -1.60467,-5.50345 -2.29666,-8.27315 -0.69198,-2.76971 -1.55682,-6.33074 -1.92185,-7.91342 -0.36506,-1.58269 -1.77286,-5.96317 -3.12845,-9.73441 -1.3556,-3.77125 -3.13081,-6.63478 -3.94489,-6.36342 -0.81409,0.27137 -3.58983,7.24171 -6.16828,15.48965 -2.5785,8.24791 -4.69446,15.80556 -4.70217,16.79475 -0.008,0.98916 0.8443,1.79851 1.89337,1.79851 1.04908,0 3.42806,1.61865 5.28664,3.597 1.85858,1.97837 3.64984,3.59702 3.98057,3.59702 0.33076,0 2.24759,-1.29493 4.25965,-2.87762 z m 116.93594,37.93287 c -1.18702,-0.37824 -6.04299,-2.41174 -10.79105,-4.51885 -4.74805,-2.1071 -8.90359,-4.0136 -9.2345,-4.23665 -0.33094,-0.22318 0.21282,-1.92732 1.20814,-3.78727 1.27065,-2.37422 1.61971,-8.26741 1.17162,-19.78143 -0.351,-9.01984 -1.13205,-17.85651 -1.73565,-19.63703 l -1.09746,-3.23732 h 3.01629 c 1.65898,0 5.78112,-1.04879 9.16035,-2.33067 3.37923,-1.28186 7.5698,-3.8717 9.31234,-5.75521 1.74256,-1.88351 3.83838,-3.42457 4.65736,-3.42457 0.81895,0 4.30371,5.80081 7.74384,12.89072 3.44015,7.08986 5.87661,13.45869 5.4143,14.1529 -0.46225,0.69421 -4.07782,3.09057 -8.03454,5.32521 -3.9567,2.23465 -8.62418,5.52077 -10.37215,7.30253 -1.74795,1.78176 -3.57657,4.82713 -4.06356,6.76747 l -0.88544,3.52792 3.34415,0.89549 c 1.83929,0.49252 5.52393,0.90437 8.1881,0.91516 l 4.84393,0.0207 -0.82701,-3.16241 c -0.45485,-1.73936 -0.12065,-4.01346 0.7425,-5.0536 1.18329,-1.42576 2.05359,-1.48935 3.5368,-0.25839 1.08203,0.898 1.96732,3.15054 1.96732,5.00562 0,1.9363 -2.14485,5.51771 -5.03583,8.40869 -2.76971,2.7697 -5.03581,6.35233 -5.03581,7.9614 0,1.87033 -0.9082,2.88461 -2.51791,2.81199 -1.38486,-0.0624 -3.48911,-0.42309 -4.67613,-0.80133 z m 0.62112,-47.09962 c -2.18341,-4.45908 -4.11171,-7.94363 -4.28513,-7.74347 -0.17346,0.20013 0.0207,5.44006 0.43308,11.6442 l 0.74835,11.28022 3.53678,-3.53675 3.53672,-3.53677 z m -187.0369,-9.68392 c -0.53879,-0.87174 -1.05052,-7.33458 -1.13718,-14.36184 -0.10952,-8.87304 -0.71529,-12.99088 -1.98293,-13.47732 -1.34721,-0.51697 -1.82539,1.51777 -1.82539,7.76732 0,4.65728 0.59839,8.6836 1.32976,8.94738 0.73137,0.2638 0.11962,1.96413 -1.35964,3.77857 l -2.68939,3.29894 -2.59709,-1.62191 -2.59706,-1.62191 v -17.84639 -17.84642 l 2.51791,0.79915 c 1.38739,0.44035 2.51792,0.0668 2.51792,-0.83219 0,-0.92989 1.69596,-1.43557 3.9444,-1.17604 2.37899,0.27457 4.13392,1.45455 4.42191,2.97316 0.26264,1.38485 -0.21749,2.51791 -1.06678,2.51791 -0.84938,0 -1.5649,-1.13306 -1.59007,-2.51791 l -0.0458,-2.51789 -2.11243,2.7929 c -1.16188,1.53611 -2.11249,4.28782 -2.11249,6.11494 0,1.82709 0.59352,3.32201 1.31893,3.32201 0.72539,0 1.54768,-0.68632 1.82728,-1.52516 0.33262,-0.99786 1.90158,-0.80236 4.53797,0.56541 l 4.02961,2.09056 0.25813,10.87265 0.25813,10.87265 -2.65399,0.69269 -2.65403,0.69268 0.96982,4.41551 c 0.53341,2.42857 0.63285,4.41554 0.22111,4.41554 -0.41185,0 -1.18961,-0.71324 -1.72837,-1.58499 z m -71.84999,-5.16456 -4.31643,-2.06257 v -10.34171 -10.34168 l 3.95673,-1.72907 c 2.17618,-0.95097 3.9567,-2.39825 3.9567,-3.21617 0,-0.81789 1.99088,-0.27638 4.42418,1.20341 l 4.42419,2.69051 0.25191,10.20344 0.25192,10.20348 -3.86952,0.8487 c -2.12826,0.46682 -4.07065,1.69371 -4.31643,2.72647 l -0.44688,1.87776 z m 6.47461,-13.2398 c 0,-6.20952 -0.57765,-8.70056 -2.15821,-9.30708 l -2.15821,-0.82817 v 9.30707 9.30708 h 2.15821 c 1.67426,0 2.15821,-1.90129 2.15821,-8.4789 z m 15.10747,13.09471 -4.31642,-2.45759 0.43072,-9.94286 c 0.30207,-6.97356 -0.12765,-10.30357 -1.43881,-11.15074 l -1.86951,-1.20789 1.9244,-1.24183 c 1.05839,-0.683 1.70587,-2.78045 1.43878,-4.66099 -0.38005,-2.67631 0.58412,-3.96322 4.43783,-5.92319 l 4.92336,-2.50398 2.27066,1.72203 c 1.24885,0.94711 2.50958,1.87442 2.80163,2.06065 0.29205,0.18616 -0.55003,1.41963 -1.87124,2.74087 l -2.40226,2.40223 -1.98762,-2.69343 -1.98762,-2.69343 0.12454,4.80134 0.12479,4.80131 3.37449,-0.64507 3.37449,-0.6451 v 3.31259 c 0,1.82191 -0.64745,3.71273 -1.43881,4.2018 -0.79133,0.48908 -1.43878,-0.12013 -1.43878,-1.35388 0,-1.2337 -0.64746,-2.24311 -1.43881,-2.24311 -0.79133,0 -1.43881,3.18435 -1.43881,7.07634 0,3.892 -0.43375,8.20672 -0.96392,9.58828 -0.56442,1.47089 -0.38689,2.15529 0.42842,1.6514 0.76575,-0.47326 2.14638,-0.39444 3.06802,0.17528 0.92171,0.56966 1.30084,2.46917 0.84259,4.22149 -0.45822,1.75222 -1.2432,3.15872 -1.7444,3.12552 -0.50122,-0.0331 -2.85369,-1.16623 -5.22771,-2.51791 z m 26.1937,-0.0712 -4.02125,-2.38637 0.67135,-9.8003 c 0.52082,-7.60283 0.21257,-9.97633 -1.37429,-10.58528 -1.12508,-0.43176 -2.04561,-1.36319 -2.04561,-2.06988 0,-0.70666 0.97119,-1.28486 2.15821,-1.28486 1.18702,0 2.15822,-0.28159 2.15822,-0.62573 0,-0.34417 -0.65955,-2.36045 -1.46563,-4.48066 l -1.46566,-3.85492 2.39312,0.91833 c 1.3631,0.52307 3.54591,-0.12506 5.07148,-1.50556 1.47309,-1.33312 3.11683,-1.98542 3.65272,-1.4495 0.53591,0.53589 0.20816,1.74051 -0.72824,2.67694 -0.93642,0.93642 -1.70258,3.19175 -1.70258,5.01183 0,1.8201 0.43463,3.30927 0.96583,3.30927 0.53118,0 2.14985,-1.07155 3.597,-2.38121 l 2.63121,-2.38121 v 2.29629 c 0,1.26295 -0.65801,2.70298 -1.46226,3.20003 -0.80425,0.49706 -1.04693,1.57583 -0.53923,2.39727 0.58974,0.95421 -0.18124,1.14308 -2.13473,0.52302 l -3.05782,-0.9705 v 8.63283 8.63286 l 2.7201,0.8633 2.72007,0.86334 -1.64097,3.53882 c -0.90255,1.94635 -1.9647,3.4847 -2.36039,3.4185 -0.39567,-0.0663 -2.52895,-1.19416 -4.74065,-2.50668 z m 36.3944,-0.53102 -3.59703,-1.43555 0.2571,-10.7441 0.2571,-10.74408 5.44257,-2.77478 c 2.99341,-1.52614 5.58198,-2.77478 5.75237,-2.77478 0.17036,0 1.32841,2.04186 2.57337,4.53749 1.24499,2.49559 2.26359,5.38639 2.26359,6.42399 0,1.03761 -1.45678,2.66255 -3.23732,3.61098 -1.78052,0.94844 -4.02603,2.75176 -4.99006,4.00734 -0.96399,1.25558 -1.77332,2.76849 -1.79851,3.36199 -0.0259,0.59352 1.5729,1.07911 3.55128,1.07911 2.23814,0 3.59699,-0.81531 3.59699,-2.15819 0,-1.18702 0.64748,-2.15822 1.43881,-2.15822 0.79136,0 1.41727,1.13307 1.39094,2.51792 -0.0264,1.38483 -1.26317,3.97469 -2.74853,5.75521 -1.48536,1.78052 -3.56807,3.16845 -4.62825,3.08425 -1.06016,-0.0841 -3.54623,-0.79904 -5.5246,-1.58858 z M 138.12379,111.30758 c -2.4079,-1.46837 -5.46199,-4.32419 -6.78688,-6.34622 -1.32489,-2.02203 -2.64748,-5.841504 -2.93909,-8.487684 -0.29161,-2.646205 -1.26578,-6.185698 -2.16484,-7.865577 -1.23694,-2.311255 -3.57343,-3.296585 -9.60374,-4.05001 -5.49164,-0.686135 -9.36722,-2.172117 -12.46633,-4.779833 -2.47347,-2.081282 -5.414673,-5.979934 -6.536013,-8.663668 l -2.03878,-4.879518 2.26761,-3.460802 2.267603,-3.4608 h 5.91193 c 3.41612,0 7.89307,1.22441 10.6047,2.9003 2.58102,1.59516 5.7329,5.092188 7.00417,7.771177 1.27126,2.678986 2.31138,5.432066 2.31138,6.117952 0,0.685887 1.61865,3.629133 3.59702,6.54056 1.97835,2.911405 3.597,7.010505 3.597,9.109092 0,2.098586 1.01663,5.957961 2.25916,8.576411 1.25128,2.63686 4.10785,5.5266 6.40298,6.47726 2.59887,1.07649 6.80589,1.35029 11.28405,0.73437 4.77356,-0.65652 8.25485,-0.37493 10.50301,0.84955 l 3.36276,1.83158 -8.63283,1.82041 c -4.74808,1.00123 -10.2515,1.84626 -12.22987,1.87782 -1.97835,0.0316 -5.56712,-1.14399 -7.975,-2.61237 z m 202.66361,-8.52152 c -0.93968,-0.59751 -2.38043,-2.853722 -3.20169,-5.0138 -0.91662,-2.410883 -1.00203,-5.21932 -0.22137,-7.272986 0.6996,-1.840067 2.9497,-4.444847 5.00021,-5.788403 2.05053,-1.343557 3.72824,-3.722827 3.72824,-5.287277 0,-1.984612 0.97168,-2.844444 3.21451,-2.844444 1.76798,0 6.58555,1.764965 10.7057,3.922145 4.12018,2.157178 7.94561,3.46775 8.50097,2.91239 0.55538,-0.555386 0.32734,-1.834733 -0.50674,-2.843054 -0.8341,-1.008295 -1.7357,-3.725729 -2.00354,-6.038731 -0.3749,-3.237269 -1.48075,-4.50192 -4.80343,-5.493169 -2.37405,-0.708238 -6.7444,-2.313295 -9.71194,-3.56679 -3.59575,-1.518853 -5.47699,-3.286063 -5.63971,-5.297883 -0.13412,-1.66034 -0.0782,-5.79833 0.12479,-9.19553 0.20299,-3.39721 -0.36604,-7.06248 -1.26451,-8.14504 -0.89844,-1.08258 -1.11652,-2.28664 -0.48457,-2.67571 0.63194,-0.38907 4.27106,-1.17468 8.08694,-1.74581 l 6.93796,-1.03841 1.29957,-3.41811 c 0.71474,-1.87996 2.44866,-3.41569 3.85308,-3.41273 1.40443,0.003 4.76411,1.35304 7.46595,3.00017 2.85481,1.74039 6.36759,2.71662 8.38653,2.33068 2.25782,-0.43161 3.77065,0.10861 4.32106,1.54298 0.5164,1.34573 -0.65089,3.49548 -2.99102,5.50837 -2.11088,1.81569 -3.83796,4.24956 -3.83796,5.40859 0,1.15903 -0.80932,2.39752 -1.79851,2.75221 -0.98919,0.35468 -3.09345,0.006 -4.67613,-0.77531 -1.58269,-0.7811 -4.70241,-3.1216 -6.93273,-5.2011 l -4.05514,-3.78092 0.45812,6.44539 0.45811,6.44539 9.10674,2.37358 c 5.0087,1.30547 9.65057,2.93729 10.31524,3.62626 0.6647,0.68897 1.40461,6.689966 1.64426,13.335546 l 0.43574,12.082875 -5.71516,1.6943 c -3.14336,0.931865 -7.17196,2.477578 -8.9525,3.43492 -1.78052,0.957342 -3.2373,2.943485 -3.2373,4.413673 0,1.470189 -0.86208,3.003863 -1.91572,3.408175 -1.05363,0.404312 -4.9952,-1.181609 -8.75904,-3.52427 -3.76381,-2.34266 -7.91961,-4.052132 -9.23503,-3.79879 -1.31544,0.253213 -2.39172,1.746652 -2.39172,3.318488 0,2.089241 0.96746,2.857916 3.59702,2.857916 1.99515,0 3.53294,0.800935 3.45315,1.798511 -0.0792,0.989188 -0.24105,2.445968 -0.3597,3.237318 -0.11884,0.79133 -1.67263,1.4289 -3.45315,1.41678 -1.78052,-0.013 -4.00615,-0.51091 -4.94581,-1.10839 z M 162.64506,96.743848 c -3.95669,-2.357185 -7.82777,-4.508745 -8.60238,-4.781247 -0.77898,-0.274055 -0.32006,-2.156427 1.02697,-4.212268 l 2.43532,-3.716768 -0.22732,-15.441879 -0.22732,-15.441868 -2.86913,-2.673 -2.86913,-2.673 3.14849,-4.25856 c 1.73166,-2.3422 3.14849,-5.62717 3.14849,-7.29993 0,-2.14711 0.74035,-2.87946 2.51792,-2.49072 1.38485,0.30286 2.33999,1.36965 2.12256,2.37065 -0.21748,1.00101 0.21075,1.44537 0.95172,0.98747 0.74087,-0.4579 3.24224,0.25516 5.55857,1.58453 l 4.21149,2.41707 -0.48711,10.53838 c -0.26789,5.79611 -0.71358,15.394347 -0.9904,21.329424 l -0.50332,10.791048 2.30183,0.02071 c 1.26599,0.01036 3.86088,0.436779 5.76637,0.946623 l 3.46454,0.926998 -1.01806,-3.464565 c -0.55992,-1.905493 -0.95348,-9.461441 -0.87454,-16.790998 l 0.14343,-13.32646 -2.23029,-0.85584 c -1.22661,-0.4707 -2.23024,-1.9594 -2.23024,-3.3082 0,-1.34881 1.30159,-3.84945 2.8924,-5.55698 1.59079,-1.70754 2.80906,-3.61015 2.7072,-4.22803 -0.10175,-0.61787 -0.10848,-1.93274 -0.0155,-2.92192 0.0937,-0.98918 1.14588,-1.79851 2.3381,-1.79851 1.19225,0 3.57515,1.61866 5.29531,3.59702 1.72017,1.97836 4.2675,3.59702 5.66079,3.59702 1.39327,0 2.95861,0.68826 3.47849,1.52947 0.51989,0.84121 -0.0893,2.67271 -1.35388,4.07001 l -2.29911,2.54054 v 16.07328 16.073272 l 2.79217,2.792179 2.79221,2.792204 -3.13741,3.988545 c -1.72555,2.193684 -2.95104,5.088364 -2.72333,6.432594 0.22784,1.344229 -0.25089,2.855067 -1.06386,3.357458 -0.81285,0.50236 -2.94809,0.1569 -4.74497,-0.767747 -1.79688,-0.924642 -5.00894,-3.304792 -7.13787,-5.289252 -2.34374,-2.184674 -4.77904,-3.259612 -6.17296,-2.724706 -1.49864,0.575063 -2.15637,2.254579 -1.88441,4.811875 0.2755,2.590877 -0.31709,4.06679 -1.74047,4.33468 -1.18702,0.22344 -5.39553,-1.522358 -9.35223,-3.879544 z m 59.71051,1.9413 c -1.18702,-0.378267 -6.04299,-2.411738 -10.79107,-4.518843 -4.74806,-2.107131 -8.80464,-3.914678 -9.01462,-4.016792 -0.20997,-0.102269 0.43748,-2.126109 1.43878,-4.497767 1.30074,-3.080732 1.56451,-8.792314 0.92374,-20.001308 -0.49327,-8.62906 -1.14073,-16.93967 -1.43881,-18.46802 l -0.54192,-2.77881 5.41785,-1.16007 c 2.97984,-0.63803 7.91783,-2.43544 10.97331,-3.99423 3.05549,-1.55879 5.9387,-3.83294 6.40712,-5.05366 0.46845,-1.22073 1.51063,-2.2195 2.31594,-2.2195 0.80534,0 3.77935,4.69411 6.60889,10.43135 2.82956,5.73724 5.752,11.04643 6.49434,11.79821 0.74237,0.75178 1.34972,2.16169 1.34972,3.13314 0,0.97145 -4.04664,4.20699 -8.99253,7.1901 -4.94591,2.9831 -9.21222,5.955124 -9.48073,6.604494 -0.26846,0.649372 -1.2759,1.97844 -2.23871,2.953489 -0.9628,0.975049 -2.22183,3.015976 -2.79787,4.535394 -0.64513,1.701669 -0.33793,3.212714 0.79992,3.934682 1.01596,0.644657 4.67445,1.182023 8.12998,1.19414 l 6.28271,0.0233 -0.82698,-3.162444 c -0.45485,-1.739343 -0.12065,-4.013447 0.7425,-5.053565 1.18329,-1.42577 2.05356,-1.489356 3.5368,-0.258391 1.08203,0.897997 1.96729,3.480131 1.96729,5.738068 0,2.85978 -1.5279,5.495706 -5.0358,8.687847 -2.76971,2.520376 -5.03584,5.773386 -5.03584,7.228921 0,1.604485 -0.99136,2.601724 -2.51791,2.532855 -1.38485,-0.0624 -3.48911,-0.423084 -4.6761,-0.801324 z m 1.53338,-35.10588 c 1.53065,-0.81919 2.78302,-2.42052 2.78302,-3.55852 0,-1.13801 -1.42395,-5.00001 -3.16431,-8.58222 -1.74039,-3.58222 -3.75203,-6.51312 -4.47035,-6.51312 -0.71832,0 -0.91304,1.02415 -0.43271,2.27588 0.48035,1.25174 0.87335,5.78398 0.87335,10.07165 0,4.28767 0.36628,7.79576 0.81398,7.79576 0.44771,0 2.06635,-0.67024 3.59702,-1.48943 z m 40.192,34.006319 c -2.7697,-1.057851 -8.06727,-3.314294 -11.77236,-5.014316 l -6.7365,-3.090986 2.05771,-3.932646 c 1.5942,-3.046841 1.87193,-7.655556 1.23305,-20.460741 -0.50914,-10.20428 -1.46687,-16.92498 -2.50321,-17.56546 -1.09386,-0.67605 -1.18156,-1.46601 -0.25166,-2.26788 0.78473,-0.67676 5.24099,-2.38424 9.9028,-3.7944 4.66182,-1.41016 10.03281,-4.12072 11.93555,-6.02347 1.90275,-1.90274 3.91572,-3.45894 4.47325,-3.45821 0.55754,7.4e-4 3.89482,5.90385 7.41617,13.11802 l 6.40245,13.11669 -2.80546,2.10422 c -1.54297,1.15732 -5.88086,3.68213 -9.63975,5.6107 -3.75889,1.928567 -6.83434,4.466773 -6.83434,5.640457 0,1.173684 -0.54353,2.133972 -1.20784,2.133972 -0.66433,0 -1.9835,1.702327 -2.9315,3.782948 -0.94799,2.080619 -1.41361,4.092966 -1.03473,4.471853 0.37892,0.378913 4.12608,0.780844 8.32704,0.893184 l 7.6381,0.204279 -0.44468,-3.819293 c -0.24467,-2.100612 0.30318,-4.281477 1.21718,-4.846365 0.914,-0.56489 2.65483,-0.03407 3.86852,1.179608 1.44256,1.442578 1.88887,3.472982 1.28885,5.863675 -0.50482,2.011334 -3.01065,5.612862 -5.56849,8.003369 -2.55784,2.390507 -4.65674,5.483175 -4.66422,6.87261 -0.008,1.389409 -0.98478,2.678155 -2.1718,2.86387 -1.18702,0.185638 -4.42432,-0.527838 -7.19402,-1.585662 z m 3.50102,-45.101789 c -1.92556,-4.35405 -3.50102,-8.28911 -3.50102,-8.74459 0,-0.45547 -0.67153,-0.15661 -1.49227,0.66414 -1.03049,1.0305 -1.03049,2.70685 0,5.41725 0.82074,2.15874 1.49227,6.79213 1.49227,10.29643 v 6.371444 l 3.50102,-3.044104 3.50105,-3.04411 z m 31.36346,43.578757 c -2.39004,-2.011102 -5.0232,-3.656546 -5.85145,-3.656546 -0.82822,0 -1.92356,-0.675804 -2.43408,-1.501828 -0.51049,-0.825997 -0.19651,-2.383386 0.69766,-3.460836 0.89422,-1.07745 1.95549,-7.038131 2.35838,-13.245938 0.40288,-6.207806 0.31372,-14.362369 -0.19807,-18.121249 -0.58702,-4.31052 -1.64648,-6.83433 -2.869,-6.83433 -1.06605,0 -2.36806,-0.6954 -2.89333,-1.54532 -0.5253,-0.84992 0.40768,-2.99591 2.07329,-4.76885 1.66559,-1.77295 3.02836,-4.6386 3.02836,-6.36812 v -3.14458 h 4.12237 c 2.26732,0 5.76862,1.29492 7.78068,2.87761 2.01206,1.58269 4.38152,2.87761 5.26546,2.87761 0.88394,0 2.22866,-1.63461 2.98825,-3.63247 l 1.38107,-3.63247 7.16831,3.63247 c 3.94259,1.99786 8.12286,3.63247 9.28948,3.63247 1.16661,0 2.51299,0.63409 2.99197,1.40907 0.47899,0.77499 0.12868,2.7958 -0.77838,4.49068 -0.95532,1.78506 -1.6492,9.79422 -1.6492,19.0361 v 15.954501 l 3.36512,2.724913 3.36514,2.72494 -4.06596,3.242058 c -2.83497,2.260535 -3.9191,4.27376 -3.58094,6.64969 0.30909,2.171702 -0.29777,3.550652 -1.67323,3.802052 -1.18702,0.216966 -4.30441,-1.507653 -6.92754,-3.832448 -2.62317,-2.32477 -5.53675,-4.485288 -6.47465,-4.801131 -1.29032,-0.434501 -1.3022,-1.068802 -0.0487,-2.606722 0.9982,-1.224821 1.85586,-9.570825 2.15821,-21.002519 l 0.50172,-18.970034 -4.77493,-2.27621 c -2.62622,-1.25191 -5.37969,-1.90245 -6.11882,-1.44564 -0.81171,0.50166 -0.7236,1.98957 0.2224,3.75736 0.94973,1.7746 1.3761,9.10437 1.08301,18.618942 -0.35273,11.451056 -0.0207,15.691672 1.23021,15.690377 0.94246,-9.83e-4 2.14338,0.693618 2.66865,1.543538 0.52528,0.849921 -0.4948,3.088603 -2.26682,4.974859 -1.77203,1.88623 -3.29666,4.860136 -3.38806,6.608626 -0.0914,1.748516 -0.89399,3.421405 -1.78355,3.717519 -0.88956,0.296115 -3.57286,-1.107043 -5.96293,-3.118144 z M 101.49581,96.59772 c -3.561063,-0.608229 -8.255163,-1.551927 -10.431373,-2.097112 -2.17618,-0.545184 -3.9567,-1.56324 -3.9567,-2.26232 0,-0.69908 -0.89588,-1.271062 -1.9908,-1.271062 -1.09493,0 -4.40518,-2.672485 -7.35615,-5.938829 -2.95094,-3.266344 -6.60335,-8.73748 -8.11644,-12.158085 -1.51309,-3.420602 -3.44235,-9.974484 -4.28724,-14.564184 -0.84488,-4.58969 -2.16448,-9.10772 -2.93243,-10.04005 -0.92485,-1.12284 -0.67873,-3.0827 0.72901,-5.80494 1.16887,-2.26039 2.59634,-6.67728 3.17215,-9.8153 0.57579,-3.13803 1.92621,-6.98264 3.00096,-8.54357 1.07473,-1.56093 1.95407,-3.69251 1.95407,-4.73685 0,-1.04433 0.80932,-2.87374 1.79851,-4.06534 0.98916,-1.19161 3.08961,-3.46392 4.66766,-5.04959 1.57805,-1.5856699 5.46283,-4.1384099 8.63286,-5.6727499 3.17,-1.53435 8.36941,-3.34159 11.5542,-4.01610004 3.184813,-0.67451 9.808403,-0.75265 14.719083,-0.17373 4.9107,0.57903 11.44813,2.36604004 14.52762,3.97115004 3.07949,1.60514 7.30089,4.62023 9.38092,6.7002599 2.08002,2.08002 3.80244,4.56176 3.8276,5.51497 0.0259,0.9532 0.99639,2.98991 2.15822,4.52601 1.16185,1.5361 2.11246,4.49404 2.11246,6.57319 0,2.07915 1.02194,7.2215 2.27097,11.42744 l 2.27097,7.64717 -2.15837,9.51996 c -1.1871,5.23597 -3.526,12.433529 -5.19757,15.994577 -1.67157,3.561045 -3.85578,7.870388 -4.85382,9.57634 l -1.81459,3.101729 -3.17223,-4.629551 c -1.74474,-2.54627 -3.17622,-5.236976 -3.18111,-5.979351 -0.005,-0.742375 -1.08569,-3.29216 -2.40182,-5.666193 -1.66523,-3.003753 -2.91066,-11.166391 -4.09535,-26.841071 -1.32339,-17.50974 -2.3264,-23.59616 -4.50512,-27.33733 -1.54147,-2.64696 -4.639,-5.6997099 -6.88341,-6.7838999 l -4.08071,-1.97125 -4.92743,2.34973 c -3.615433,1.72407 -5.861343,4.3896299 -8.434873,10.0109799 -2.20476,4.81584 -3.85235,11.74157 -4.43612,18.64748 -0.58322,6.89941 -0.36951,11.66948 0.57447,12.82296 0.82675,1.0102 1.86873,7.01643 2.3155,13.34717 0.4468,6.330755 1.41517,13.452847 2.15192,15.826877 0.73675,2.37403 1.78798,5.418153 2.33604,6.764738 0.54808,1.346586 3.22471,3.183701 5.948073,4.082477 3.60735,1.190542 6.16998,1.209442 9.43972,0.06965 2.46846,-0.86051 5.9409,-1.564561 7.71649,-1.564561 1.77563,0 3.61481,1.006975 4.08709,2.237724 0.60313,1.571707 -0.52872,2.799454 -3.80278,4.124939 -2.56382,1.03794 -6.28015,2.194124 -8.2585,2.569257 -1.97835,0.375159 -6.5106,0.184343 -10.07163,-0.423808 z"
     id="path6564" /></svg>
